<svg width="24" height="24" viewBox="0 0 24 24" fill="none" xmlns="http://www.w3.org/2000/svg">
<path d="M19.6516 18.9887C18.6411 20.0833 17.4424 20.9454 16.0886 21.5511C14.6875 22.1779 13.1922 22.4957 11.6443 22.4957C8.73384 22.4957 5.99751 21.3623 3.9395 19.3043C1.88149 17.2462 0.74808 14.5099 0.74808 11.5994C0.74808 8.68896 1.88149 5.95264 3.93955 3.89458C5.99756 1.83657 8.73388 0.703159 11.6443 0.703159C13.6902 0.703159 15.6839 1.2733 17.41 2.35188C17.5747 2.45476 17.7916 2.4047 17.8945 2.24006C17.9974 2.07537 17.9473 1.85846 17.7826 1.75558C15.9447 0.607059 13.8221 0 11.6443 0C8.54603 0 5.63318 1.20654 3.44234 3.39738C1.25151 5.58826 0.0449219 8.50111 0.0449219 11.5994C0.0449219 14.6977 1.25151 17.6106 3.4423 19.8015C5.63313 21.9923 8.54599 23.1989 11.6443 23.1989C13.2918 23.1989 14.8837 22.8604 16.3758 22.1929C17.8169 21.5482 19.0928 20.6306 20.1682 19.4657C20.2999 19.323 20.2911 19.1006 20.1484 18.9689C20.0057 18.8371 19.7832 18.846 19.6516 18.9887Z" fill="#413D45"/>
<path d="M23.9716 10.3558C23.916 10.2271 23.7892 10.1438 23.6489 10.1438H23.1537C22.974 8.70518 22.5314 7.33142 21.8361 6.05574C21.1097 4.72301 20.1431 3.56013 18.9631 2.59946C18.8125 2.47678 18.591 2.49961 18.4685 2.65013C18.3459 2.80073 18.3686 3.02217 18.5191 3.14476C19.628 4.04751 20.5362 5.14012 21.2187 6.39223C21.9195 7.67802 22.3469 9.06997 22.4891 10.5295C22.5066 10.7087 22.6565 10.8455 22.8362 10.847L21.7155 12.0397L20.5947 10.847H20.8339C21.0385 10.8516 21.2118 10.6565 21.183 10.4539C20.6095 5.63054 16.5091 1.99329 11.6451 1.99329C6.34831 1.99329 2.03906 6.30254 2.03906 11.5994C2.03906 13.3874 2.53374 15.1323 3.46961 16.6455C3.53615 16.753 3.65119 16.8122 3.76896 16.8122C3.83207 16.8122 3.89594 16.7952 3.95358 16.7595C4.11869 16.6574 4.16978 16.4407 4.06764 16.2756C3.20054 14.8736 2.74222 13.2566 2.74222 11.5994C2.74222 6.69026 6.73603 2.69644 11.6451 2.69644C16.02 2.69644 19.7282 5.87102 20.4292 10.1438H19.7818C19.4831 10.1339 19.3139 10.5253 19.5256 10.7361L21.4592 12.7939C21.5911 12.9404 21.8397 12.9404 21.9716 12.7939L23.9052 10.7361C24.0012 10.634 24.0273 10.4845 23.9716 10.3558Z" fill="#413D45"/>
<path d="M22.4928 14.2239H20.4093C20.2587 14.2239 20.1248 14.3198 20.0764 14.4624C18.8503 18.0751 15.4614 20.5023 11.6438 20.5023C9.02962 20.5023 6.5576 19.3596 4.86148 17.3671C4.73563 17.2192 4.51367 17.2013 4.36587 17.3272C4.21802 17.4531 4.2002 17.675 4.32605 17.8229C6.15603 19.9726 8.8232 21.2055 11.6438 21.2055C15.6781 21.2055 19.2687 18.6929 20.6577 14.927H22.0219C21.6789 15.9989 21.1726 17.0069 20.5132 17.9293C20.4003 18.0872 20.4368 18.3069 20.5948 18.4198C20.7528 18.5328 20.9724 18.4961 21.0853 18.3382C21.8834 17.2216 22.4711 15.9869 22.832 14.6682C22.8609 14.5625 22.8389 14.4493 22.7724 14.3621C22.7059 14.275 22.6025 14.2239 22.4928 14.2239Z" fill="#413D45"/>
<path d="M4.98635 14.2684C5.02753 14.2841 5.06982 14.2915 5.11141 14.2915C5.25304 14.2915 5.38661 14.2052 5.44 14.0649L5.77597 13.1828H8.01463L8.34719 14.0639C8.41573 14.2456 8.61864 14.3374 8.80027 14.2688C8.98194 14.2002 9.0736 13.9974 9.00506 13.8157L7.32508 9.36412C7.32391 9.36089 7.32265 9.35771 7.32134 9.35452C7.25107 9.18361 7.08633 9.07324 6.90152 9.07324C6.90138 9.07324 6.90124 9.07324 6.90115 9.07324C6.7162 9.07338 6.55142 9.18408 6.48138 9.35527C6.4803 9.35794 6.47923 9.36061 6.47824 9.36327L4.78288 13.8147C4.71377 13.9961 4.80487 14.1992 4.98635 14.2684ZM6.90045 10.2304L7.7493 12.4796H6.04383L6.90045 10.2304Z" fill="#413D45"/>
<path d="M17.0892 9.79708C17.2834 9.79708 17.4408 9.63964 17.4408 9.44547C17.4408 9.25131 17.2834 9.09387 17.0892 9.09387H15.2041C15.0099 9.09387 14.8525 9.25131 14.8525 9.44547V13.9192C14.8525 14.1133 15.0099 14.2708 15.2041 14.2708H17.0892C17.2834 14.2708 17.4408 14.1133 17.4408 13.9192C17.4408 13.725 17.2834 13.5676 17.0892 13.5676H15.5557V12.0339H16.9502C17.1444 12.0339 17.3018 11.8765 17.3018 11.6823C17.3018 11.4881 17.1444 11.3307 16.9502 11.3307H15.5557V9.79703H17.0892V9.79708Z" fill="#413D45"/>
<path d="M11.8395 9.7764C12.2215 9.7764 12.5899 9.88888 12.9049 10.1017C13.0658 10.2104 13.2844 10.1681 13.3931 10.0072C13.5018 9.84625 13.4595 9.62771 13.2985 9.51903C12.8668 9.2274 12.3623 9.07324 11.8395 9.07324C10.4009 9.07324 9.23047 10.2437 9.23047 11.6823C9.23047 13.121 10.4009 14.2914 11.8395 14.2914C13.1939 14.2914 14.1399 13.2185 14.1399 11.6823C14.1399 11.4881 13.9825 11.3307 13.7882 11.3307H12.4376C12.2434 11.3307 12.086 11.4881 12.086 11.6823C12.086 11.8765 12.2434 12.0339 12.4376 12.0339H13.4172C13.2858 13.1734 12.5113 13.5882 11.8395 13.5882C10.7886 13.5882 9.93358 12.7332 9.93358 11.6823C9.93363 10.6314 10.7886 9.7764 11.8395 9.7764Z" fill="#413D45"/>
</svg>
