<svg width="19" height="21" viewBox="0 0 19 21" fill="none" xmlns="http://www.w3.org/2000/svg">
<path d="M17.1667 20.0833H1.83333C1.57917 20.0833 1.33541 19.9823 1.15569 19.8026C0.975967 19.6229 0.875 19.3791 0.875 19.125V1.87496C0.875 1.62079 0.975967 1.37704 1.15569 1.19732C1.33541 1.01759 1.57917 0.916626 1.83333 0.916626H17.1667C17.4208 0.916626 17.6646 1.01759 17.8443 1.19732C18.024 1.37704 18.125 1.62079 18.125 1.87496V19.125C18.125 19.3791 18.024 19.6229 17.8443 19.8026C17.6646 19.9823 17.4208 20.0833 17.1667 20.0833ZM16.2083 18.1666V2.83329H2.79167V18.1666H16.2083ZM4.70833 4.74996H8.54167V8.58329H4.70833V4.74996ZM4.70833 10.5H14.2917V12.4166H4.70833V10.5ZM4.70833 14.3333H14.2917V16.25H4.70833V14.3333ZM10.4583 5.70829H14.2917V7.62496H10.4583V5.70829Z" fill="#413D45"/>
</svg>
