<svg width="331" height="246" viewBox="0 0 331 246" fill="none" xmlns="http://www.w3.org/2000/svg">
<mask id="mask0_1835_12" style="mask-type:alpha" maskUnits="userSpaceOnUse" x="84" y="19" width="148" height="226">
<rect x="84.1807" y="19.8041" width="147.296" height="225.196" fill="#C4C4C4"/>
</mask>
<g mask="url(#mask0_1835_12)">
<path d="M205.993 306.849L108.481 306.427C96.7459 306.342 87.2902 296.802 87.3746 285.067L88.3877 40.5684C88.4721 28.8332 98.0123 19.3774 109.748 19.3774L207.26 19.7996C218.995 19.884 228.451 29.4242 228.366 41.1594L227.353 285.658C227.269 297.393 217.729 306.849 205.993 306.849Z" fill="#263238"/>
<path d="M207.091 28.3267L188.18 28.2422C185.647 28.2422 183.621 30.3529 183.536 33.0545V36.516C183.536 39.1332 181.425 41.3283 178.893 41.3283L141.998 41.1595C139.466 41.1595 137.439 38.9644 137.439 36.3472V32.8857C137.439 30.2685 135.413 28.0734 132.88 28.0734H126.211L109.748 27.9045C101.558 27.9045 94.8041 34.4898 94.8041 42.6791L93.791 281.268C93.791 289.457 100.376 296.211 108.566 296.211L205.909 296.633C214.098 296.633 220.853 290.048 220.853 281.859L221.866 43.2701C221.95 35.0808 215.28 28.3267 207.091 28.3267Z" fill="#FAFAFA"/>
</g>
<path d="M40.4999 13.444V36.2821C40.4999 40.4016 43.8244 43.7984 48.0162 43.7984H129.828C133.948 43.7984 137.345 40.4739 137.345 36.2821V16.9854L147.535 6.28909L48.0162 6C43.8967 6 40.4999 9.32453 40.4999 13.444Z" fill="#DBE5FF"/>
<path d="M125.275 19.8041L50.9795 19.4427V17.2023L125.275 17.5636V19.8041Z" fill="#6995FF"/>
<path d="M125.275 27.3203L50.9795 26.9589V24.7185L125.275 25.0799V27.3203Z" fill="#6995FF"/>
<path d="M95.8654 32.2354L125.28 32.3801L125.269 34.6928L95.8541 34.5481L95.8654 32.2354Z" fill="#6995FF"/>
<path d="M308.065 142.218V168.896C308.065 173.709 304.181 177.677 299.284 177.677H203.714C198.901 177.677 194.933 173.793 194.933 168.896V146.355L183.029 133.859L299.284 133.522C304.181 133.522 308.065 137.405 308.065 142.218Z" fill="#DBE5FF"/>
<path d="M209.033 149.647L295.823 149.309V146.608L209.033 147.03V149.647Z" fill="#6995FF"/>
<path d="M209.033 158.427L295.823 158.09V155.388L209.033 155.81V158.427Z" fill="#6995FF"/>
<path d="M243.391 164.171L209.029 164.34L209.043 167.041L243.404 166.872L243.391 164.171Z" fill="#6995FF"/>
<mask id="mask1_1835_12" style="mask-type:alpha" maskUnits="userSpaceOnUse" x="213" y="169" width="102" height="77">
<rect x="213.345" y="169.327" width="100.827" height="76.2731" fill="#C4C4C4"/>
</mask>
<g mask="url(#mask1_1835_12)">
<path d="M226.171 274.682C211.903 260.752 211.65 239.223 215.365 220.481C215.956 217.357 216.209 213.98 218.151 211.447C220.093 208.914 223.892 207.648 226.509 209.421C228.62 210.941 229.211 213.811 230.14 216.259C231.406 219.552 233.601 222.423 236.387 224.533C238.244 225.884 240.608 226.897 242.719 226.137C245.674 225.124 246.603 221.409 247.109 218.286C248.038 212.46 248.967 206.635 249.895 200.809C250.402 197.686 250.908 194.478 252.344 191.691C253.779 188.905 256.396 186.457 259.52 186.119C262.644 185.782 266.021 188.061 266.19 191.269C266.274 192.62 265.767 193.887 265.683 195.153C265.599 196.504 265.936 198.023 267.118 198.53C268.3 199.121 269.735 198.446 270.749 197.686C274.463 195.069 277.334 191.354 280.035 187.639C282.737 183.924 285.439 180.125 288.9 177.17C292.362 174.215 296.921 172.105 301.395 172.611C305.87 173.118 310.26 176.664 310.598 181.223C311.02 185.782 307.727 189.834 304.35 192.958C299.369 197.601 293.628 201.4 287.549 204.44C286.452 204.946 285.27 205.537 284.679 206.635C283.666 208.577 285.27 211.025 287.212 212.038C289.407 213.22 291.94 213.389 294.388 214.064C296.752 214.74 299.2 216.259 299.791 218.708C300.551 222.085 297.343 225.04 294.303 226.813C288.309 230.359 281.724 232.807 274.97 234.158C272.522 234.664 269.989 235.002 267.878 236.268C265.767 237.619 264.163 240.237 264.923 242.6C265.683 244.964 268.469 246.146 270.917 246.146C273.366 246.062 275.73 245.133 278.178 244.627C282.737 243.698 288.225 244.88 290.335 249.101C291.771 251.803 291.349 255.264 289.998 258.05C288.647 260.837 286.367 263.032 284.003 264.973C275.814 271.896 265.936 276.962 255.383 278.819C244.83 280.508 235.458 279.917 226.171 274.682Z" fill="#E8505B"/>
<path d="M223.639 288.613C225.58 281.268 228.62 272.741 232.926 263.707C237.231 254.673 242.803 245.133 248.967 235.424C250.486 232.976 252.006 230.612 253.526 228.248C255.045 225.884 256.565 223.52 258.169 221.325C261.377 216.935 264.754 212.882 268.131 209.252C271.508 205.537 274.801 202.16 277.925 199.037C281.049 195.913 284.003 193.042 286.874 190.509C292.531 185.444 297.512 181.982 301.058 179.703C302.831 178.521 304.266 177.761 305.194 177.17C305.617 176.917 306.039 176.664 306.292 176.579C306.545 176.41 306.63 176.41 306.714 176.41C306.714 176.41 306.63 176.495 306.376 176.664C306.123 176.832 305.785 177.086 305.279 177.339C304.35 177.93 302.999 178.774 301.226 179.956C297.765 182.32 292.784 185.866 287.212 190.847C284.426 193.38 281.471 196.25 278.347 199.374C275.223 202.498 271.931 205.959 268.638 209.59C265.261 213.305 261.884 217.273 258.76 221.663C257.156 223.858 255.721 226.137 254.201 228.586C252.681 230.95 251.162 233.398 249.642 235.762C243.479 245.471 237.907 255.011 233.601 263.96C229.211 272.994 226.171 281.437 224.23 288.782" fill="#263238"/>
<path d="M258.338 221.241C258.338 221.241 258.254 220.734 258.254 219.89C258.254 218.961 258.254 217.695 258.254 216.091C258.338 212.883 258.592 208.492 258.845 203.68C259.098 198.868 259.351 194.478 259.351 191.269C259.351 189.665 259.351 188.399 259.351 187.47C259.351 186.542 259.351 186.119 259.436 186.119C259.436 186.119 259.52 186.626 259.605 187.47C259.689 188.399 259.774 189.665 259.774 191.269C259.858 194.478 259.774 198.868 259.436 203.68C259.183 208.492 258.845 212.798 258.676 216.091C258.592 217.61 258.507 218.877 258.507 219.89C258.423 220.734 258.423 221.241 258.338 221.241Z" fill="#263238"/>
<path d="M299.707 220.312C299.707 220.312 299.116 220.312 298.103 220.228C297.09 220.143 295.57 220.059 293.713 219.974C289.998 219.805 284.763 219.637 279.107 219.805C273.366 219.974 268.216 220.312 264.501 220.65C262.644 220.819 261.124 220.987 260.111 221.072C259.098 221.156 258.507 221.241 258.507 221.241C258.507 221.241 259.098 221.072 260.111 220.903C261.124 220.734 262.644 220.481 264.501 220.228C268.216 219.721 273.45 219.299 279.191 219.214C284.932 219.046 290.167 219.214 293.881 219.552C295.739 219.721 297.258 219.89 298.272 220.059C299.2 220.143 299.707 220.312 299.707 220.312Z" fill="#263238"/>
<path d="M233.516 263.032C233.516 263.032 233.432 262.863 233.348 262.525C233.263 262.103 233.094 261.596 232.925 260.921C232.503 259.57 231.997 257.544 231.406 255.096C230.224 250.199 228.789 243.36 227.353 235.762C225.918 228.164 224.567 221.325 223.47 216.428C222.963 214.064 222.541 212.038 222.203 210.603C222.035 209.928 221.95 209.421 221.866 208.999C221.781 208.661 221.781 208.408 221.781 208.408C221.781 208.408 221.866 208.577 221.95 208.914C222.035 209.337 222.203 209.843 222.372 210.518C222.794 211.869 223.301 213.896 223.892 216.344C225.074 221.241 226.509 228.079 227.944 235.678C229.38 243.276 230.73 250.114 231.828 255.011C232.335 257.375 232.757 259.401 233.094 260.837C233.263 261.512 233.348 262.019 233.432 262.441C233.516 262.778 233.601 263.032 233.516 263.032Z" fill="#263238"/>
</g>
<path d="M80.5444 135.547C93.0526 123.335 93.2746 104.462 90.018 88.0312C89.4999 85.2928 89.2779 82.3322 87.5756 80.1119C85.8733 77.8915 82.5427 76.7813 80.2483 78.3356C78.398 79.6678 77.8799 82.1842 77.0658 84.3306C75.9556 87.2171 74.0313 89.7335 71.5888 91.5839C69.9606 92.7681 67.8882 93.6562 66.0379 92.9901C63.4474 92.1019 62.6333 88.8454 62.1892 86.1069C61.3751 81 60.5609 75.8931 59.7468 70.7862C59.3027 68.0478 58.8586 65.2353 57.6004 62.7929C56.3422 60.3504 54.0478 58.2041 51.3093 57.908C48.5708 57.612 45.6103 59.6103 45.4623 62.4228C45.3883 63.607 45.8324 64.7172 45.9064 65.8274C45.9804 67.0116 45.6843 68.3438 44.6482 68.7879C43.612 69.306 42.3538 68.7139 41.4656 68.0478C38.209 65.7534 35.6926 62.4968 33.3242 59.2402C30.9558 55.9837 28.5874 52.6531 25.5528 50.0626C22.5183 47.4722 18.5216 45.6219 14.5989 46.0659C10.6763 46.51 6.8276 49.6186 6.53154 53.6153C6.16148 57.612 9.04797 61.1646 12.0085 63.903C16.3753 67.9738 21.4081 71.3043 26.737 73.9688C27.6992 74.4129 28.7354 74.931 29.2535 75.8931C30.1416 77.5954 28.7354 79.7418 27.0331 80.63C25.1088 81.6661 22.8884 81.8142 20.742 82.4063C18.6696 82.9984 16.5233 84.3306 16.0052 86.477C15.3391 89.4375 18.1516 92.0279 20.816 93.5822C26.0709 96.6908 31.8439 98.8371 37.765 100.021C39.9113 100.465 42.1317 100.761 43.982 101.872C45.8324 103.056 47.2386 105.35 46.5725 107.423C45.9064 109.495 43.464 110.531 41.3176 110.531C39.1712 110.457 37.0989 109.643 34.9525 109.199C30.9558 108.385 26.145 109.421 24.2946 113.122C23.0364 115.49 23.4065 118.525 24.5907 120.967C25.7749 123.409 27.7732 125.334 29.8456 127.036C37.0248 133.105 45.6843 137.546 54.9359 139.174C64.1876 140.654 72.403 140.136 80.5444 135.547Z" fill="#E8505B"/>
<path d="M82.7656 147.76C81.0633 141.32 78.3989 133.845 74.6242 125.926C70.8496 118.006 65.9647 109.643 60.5618 101.131C59.2295 98.9851 57.8973 96.9127 56.5651 94.8404C55.2328 92.768 53.9006 90.6957 52.4943 88.7713C49.6819 84.9227 46.7214 81.37 43.7608 78.1875C40.8003 74.9309 37.9138 71.9704 35.1753 69.2319C32.4369 66.4935 29.8464 63.977 27.33 61.7566C22.3711 57.3159 18.0044 54.2813 14.8958 52.283C13.3416 51.2468 12.0833 50.5807 11.2692 50.0626C10.8991 49.8406 10.5291 49.6185 10.307 49.5445C10.085 49.3965 10.011 49.3965 9.93695 49.3965C9.93695 49.3965 10.011 49.4705 10.233 49.6185C10.4551 49.7666 10.7511 49.9886 11.1952 50.2106C12.0093 50.7287 13.1935 51.4689 14.7478 52.505C17.7823 54.5774 22.1491 57.6859 27.0339 62.0527C29.4763 64.2731 32.0668 66.7895 34.8053 69.528C37.5438 72.2665 40.4303 75.301 43.3168 78.4836C46.2773 81.7401 49.2378 85.2187 51.9763 89.0674C53.3825 90.9917 54.6407 92.9901 55.973 95.1364C57.3052 97.2088 58.6374 99.3552 59.9697 101.428C65.3726 109.939 70.2574 118.302 74.0321 126.148C77.8808 134.067 80.5452 141.468 82.2475 147.908" fill="#263238"/>
<path d="M52.3459 88.6973C52.3459 88.6973 52.4199 88.2532 52.4199 87.5131C52.4199 86.699 52.4199 85.5888 52.4199 84.1825C52.3459 81.37 52.1239 77.5214 51.9018 73.3026C51.6798 69.0839 51.4577 65.2352 51.4577 62.4227C51.4577 61.0165 51.4577 59.9063 51.4577 59.0922C51.4577 58.278 51.4577 57.908 51.3837 57.908C51.3837 57.908 51.3097 58.352 51.2357 59.0922C51.1617 59.9063 51.0877 61.0165 51.0877 62.4227C51.0137 65.2352 51.0877 69.0839 51.3837 73.3026C51.6058 77.5214 51.9018 81.296 52.0499 84.1825C52.1239 85.5148 52.1979 86.6249 52.1979 87.5131C52.2719 88.2532 52.2719 88.6973 52.3459 88.6973Z" fill="#263238"/>
<path d="M16.08 87.8833C16.08 87.8833 16.5981 87.8833 17.4862 87.8092C18.3744 87.7352 19.7066 87.6612 21.3349 87.5872C24.5915 87.4392 29.1802 87.2912 34.1391 87.4392C39.172 87.5872 43.6868 87.8833 46.9433 88.1793C48.5716 88.3273 49.9038 88.4754 50.792 88.5494C51.6802 88.6234 52.1982 88.6974 52.1982 88.6974C52.1982 88.6974 51.6802 88.5494 50.792 88.4014C49.9038 88.2533 48.5716 88.0313 46.9433 87.8092C43.6868 87.3652 39.098 86.9951 34.0651 86.9211C29.0322 86.7731 24.4434 86.9211 21.1869 87.2172C19.5586 87.3652 18.2263 87.5132 17.3382 87.6612C16.524 87.7353 16.08 87.8833 16.08 87.8833Z" fill="#263238"/>
<path d="M74.1058 125.334C74.1058 125.334 74.1798 125.186 74.2538 124.89C74.3278 124.52 74.4758 124.075 74.6239 123.483C74.9939 122.299 75.438 120.523 75.9561 118.377C76.9923 114.084 78.2505 108.089 79.5087 101.428C80.7669 94.7664 81.9511 88.7714 82.9133 84.4786C83.3574 82.4062 83.7274 80.6299 84.0235 79.3717C84.1715 78.7796 84.2455 78.3356 84.3195 77.9655C84.3936 77.6694 84.3936 77.4474 84.3936 77.4474C84.3936 77.4474 84.3196 77.5954 84.2455 77.8915C84.1715 78.2615 84.0235 78.7056 83.8755 79.2977C83.5054 80.4819 83.0613 82.2582 82.5432 84.4046C81.5071 88.6974 80.2488 94.6924 78.9906 101.354C77.7324 108.015 76.5482 114.01 75.586 118.302C75.142 120.375 74.7719 122.151 74.4758 123.409C74.3278 124.001 74.2538 124.446 74.1798 124.816C74.1058 125.112 74.0318 125.334 74.1058 125.334Z" fill="#263238"/>
<path d="M24.8129 117.932C24.8129 117.932 24.9609 118.006 25.331 118.08C25.7011 118.155 26.2192 118.229 26.7372 118.303C28.0695 118.525 29.8458 118.747 31.9922 119.117C36.4329 119.783 42.576 120.819 49.3852 121.929C56.1944 123.039 62.3374 124.002 66.7782 124.594C68.9986 124.89 70.8489 125.112 72.1071 125.26C72.6992 125.334 73.1433 125.334 73.5874 125.408C73.8834 125.408 74.1055 125.408 74.1055 125.408C74.1055 125.408 73.9574 125.334 73.5874 125.26C73.2173 125.186 72.6992 125.112 72.1811 125.038C70.8489 124.816 69.0726 124.594 66.9262 124.224C62.4854 123.557 56.3424 122.521 49.5332 121.411C42.724 120.301 36.5809 119.339 32.1402 118.747C29.9198 118.451 28.0695 118.229 26.8113 118.08C26.2192 118.006 25.7751 118.006 25.331 117.932C25.035 117.858 24.8129 117.858 24.8129 117.932Z" fill="#263238"/>
<path d="M123.932 123.812C125.536 124.065 221.191 142.808 221.191 142.808V123.812H123.932Z" fill="#EBEBEB"/>
<path d="M313.637 51.2051H123.341C119.204 51.2051 115.911 54.4977 115.911 58.6346V117.649C115.911 121.785 119.204 125.078 123.341 125.078H137.524C138.706 131.241 139.973 139.008 139.973 139.008L152.805 125.078H313.637C317.774 125.078 321.067 121.785 321.067 117.649V58.6346C321.067 54.5821 317.774 51.2051 313.637 51.2051Z" fill="#598AFF"/>
<path d="M235.121 83.2872C235.121 83.3716 212.495 83.5405 184.55 83.5405C156.605 83.5405 133.979 83.4561 133.979 83.2872C133.979 83.2028 156.605 83.0339 184.55 83.0339C212.41 83.0339 235.121 83.1184 235.121 83.2872Z" fill="#F5F5F5"/>
<path d="M235.12 74.1692C235.12 74.2536 212.494 74.4224 184.549 74.4224C156.604 74.4224 133.978 74.338 133.978 74.1692C133.978 74.0847 156.604 73.9159 184.549 73.9159C212.41 74.0003 235.12 74.0847 235.12 74.1692Z" fill="#F5F5F5"/>
<path d="M235.121 92.2364C235.121 92.3209 212.495 92.4897 184.55 92.4897C156.605 92.4897 133.979 92.4053 133.979 92.2364C133.979 92.152 156.605 91.9832 184.55 91.9832C212.41 91.9832 235.121 92.0676 235.121 92.2364Z" fill="#F5F5F5"/>
<path d="M167.073 101.777C185.398 101.777 200.253 101.663 200.253 101.523C200.253 101.383 185.398 101.27 167.073 101.27C148.749 101.27 133.894 101.383 133.894 101.523C133.894 101.663 148.749 101.777 167.073 101.777Z" fill="#F5F5F5"/>
<path d="M227.607 143.922H35.7061C32.8356 143.922 30.4717 146.286 30.4717 149.157V211.632C30.4717 214.502 32.8356 216.866 35.7061 216.866H175.094L187.758 230.628C187.758 230.628 189.109 222.861 190.206 216.866H227.607C230.477 216.866 232.841 214.502 232.841 211.632V149.157C232.841 146.202 230.477 143.922 227.607 143.922Z" fill="#7DCFFD"/>
<path d="M220.093 176.089C220.093 176.173 197.467 176.342 169.522 176.342C141.576 176.342 118.95 176.257 118.95 176.089C118.95 176.004 141.576 175.835 169.522 175.835C197.467 175.835 220.093 176.004 220.093 176.089Z" fill="#F5F5F5"/>
<path d="M220.092 167.055C220.092 167.139 197.466 167.308 169.521 167.308C141.575 167.308 118.949 167.224 118.949 167.055C118.949 166.886 141.575 166.802 169.521 166.802C197.466 166.802 220.092 166.886 220.092 167.055Z" fill="#F5F5F5"/>
<path d="M220.093 185.038C220.093 185.122 197.467 185.291 169.522 185.291C141.576 185.291 118.95 185.207 118.95 185.038C118.95 184.869 141.576 184.784 169.522 184.784C197.467 184.869 220.093 184.953 220.093 185.038Z" fill="#F5F5F5"/>
<path d="M152.045 194.578C170.369 194.578 185.224 194.464 185.224 194.325C185.224 194.185 170.369 194.071 152.045 194.071C133.72 194.071 118.865 194.185 118.865 194.325C118.865 194.464 133.72 194.578 152.045 194.578Z" fill="#F5F5F5"/>
<path d="M265.768 26.215C265.852 24.6953 264.501 22.5002 263.235 21.3182C261.968 20.0518 261.124 18.4477 261.799 15.915C262.306 13.9732 263.572 14.142 263.995 13.0445C264.332 12.2002 264.163 11.2715 264.248 10.3428C264.501 7.21905 267.878 4.77069 270.917 5.61495C271.762 2.66003 274.548 0.380524 277.587 0.0428185C280.627 -0.294886 283.835 1.39364 285.27 4.09528C287.043 3.16659 289.238 3.25102 290.927 4.17971C292.615 5.10839 293.797 6.96577 293.966 8.90757C295.654 7.64118 298.272 8.14774 299.622 9.75184C300.973 11.3559 301.058 13.8043 300.045 15.6617C299.031 17.5191 297.005 18.701 294.979 19.0387C292.868 19.3764 290.758 18.8699 288.9 17.9412C287.043 17.0125 285.354 15.6617 283.919 14.142" fill="#263238"/>
<path d="M279.613 123.221C299.803 123.221 316.17 107.232 316.17 87.5083C316.17 67.785 299.803 51.796 279.613 51.796C259.424 51.796 243.057 67.785 243.057 87.5083C243.057 107.232 259.424 123.221 279.613 123.221Z" fill="#E0E0E0"/>
<path d="M316.254 87.5083L312.202 77.1239L297.681 86.2419L310.598 106.167C310.682 106.167 315.917 99.4124 316.254 87.5083Z" fill="#EB996E"/>
<path d="M276.237 65.0509C281.471 65.0509 285.777 60.9984 286.03 55.8484C286.283 51.5427 286.452 47.4058 286.452 47.4058C286.452 47.4058 294.388 46.8148 295.148 39.0476C295.908 31.2804 295.992 13.2132 295.992 13.2132C287.212 8.56974 276.574 9.0763 268.216 14.3952L267.456 14.9017L266.528 55.2575C266.443 60.6607 270.833 65.0509 276.237 65.0509Z" fill="#FFBE9D"/>
<path d="M280.88 25.2862C281.471 25.4551 281.809 26.1305 281.64 26.7215C281.471 27.3125 280.796 27.6502 280.205 27.4813C279.614 27.3125 279.276 26.6371 279.445 26.0461C279.614 25.3707 280.205 25.033 280.88 25.2862Z" fill="#263238"/>
<path d="M282.991 25.6239C282.822 25.7928 282.146 25.1174 281.049 25.033C279.951 24.9485 279.107 25.4551 279.022 25.2862C278.938 25.2018 279.107 24.9485 279.445 24.7797C279.782 24.5264 280.373 24.3575 281.049 24.3575C281.724 24.442 282.315 24.6952 282.568 24.9485C282.991 25.3707 283.075 25.6239 282.991 25.6239Z" fill="#263238"/>
<path d="M292.699 25.2862C293.29 25.4551 293.628 26.1305 293.459 26.7215C293.29 27.3125 292.615 27.6502 292.024 27.4813C291.433 27.3125 291.095 26.6371 291.264 26.0461C291.517 25.3707 292.108 25.033 292.699 25.2862Z" fill="#263238"/>
<path d="M295.064 25.7083C294.895 25.8771 294.219 25.2017 293.122 25.1173C292.024 25.0329 291.18 25.5394 291.096 25.3706C291.011 25.2862 291.18 25.0329 291.518 24.864C291.856 24.6107 292.447 24.4419 293.122 24.4419C293.797 24.5263 294.388 24.7796 294.642 25.0329C295.064 25.3706 295.148 25.6239 295.064 25.7083Z" fill="#263238"/>
<path d="M286.874 34.0665C286.874 33.9821 287.549 33.8976 288.647 33.8132C288.9 33.8132 289.154 33.7288 289.154 33.6444C289.238 33.4755 289.154 33.1378 288.985 32.8001C288.731 32.0403 288.563 31.3649 288.309 30.5206C287.381 27.3124 286.79 24.6952 286.958 24.6108C287.127 24.5263 287.972 27.1435 288.9 30.3517C289.154 31.1116 289.322 31.8714 289.491 32.6312C289.576 32.9689 289.745 33.3911 289.576 33.8132C289.491 34.0665 289.238 34.1509 289.069 34.2353C288.9 34.2353 288.731 34.2353 288.563 34.2353C287.549 34.2353 286.874 34.1509 286.874 34.0665Z" fill="#263238"/>
<path d="M286.452 47.3214C286.452 47.3214 281.471 47.3214 276.405 43.6067C276.405 43.6067 278.347 49.4321 286.283 49.3477L286.452 47.3214Z" fill="#EB996E"/>
<path d="M267.203 26.3836C267.203 25.7927 266.696 25.2017 266.105 25.2017C264.67 25.1172 262.222 25.6238 261.884 29.6763C261.462 35.4172 267.034 34.0664 267.119 33.8976C267.119 33.8131 267.203 28.6631 267.203 26.3836Z" fill="#FFBE9D"/>
<path d="M265.852 31.618C265.852 31.618 265.768 31.7024 265.599 31.7869C265.43 31.8713 265.177 31.8713 264.839 31.7869C264.248 31.5336 263.826 30.5205 263.826 29.5074C263.826 29.0008 263.995 28.4943 264.248 28.0721C264.417 27.65 264.754 27.3967 265.092 27.3967C265.43 27.3123 265.599 27.5656 265.683 27.7344C265.768 27.9033 265.683 27.9877 265.768 27.9877C265.768 27.9877 265.936 27.9033 265.852 27.65C265.852 27.5656 265.768 27.3967 265.683 27.3123C265.514 27.2279 265.345 27.1434 265.177 27.1434C264.754 27.1434 264.332 27.4811 264.079 27.9877C263.826 28.4098 263.657 29.0008 263.572 29.5918C263.488 30.7738 264.079 31.8713 264.839 32.209C265.261 32.3779 265.599 32.209 265.768 32.1246C265.852 31.7869 265.936 31.618 265.852 31.618Z" fill="#EB996E"/>
<path d="M277.925 22.5845C278.178 22.9222 279.192 22.7534 280.542 22.7534C281.809 22.6689 282.822 22.6689 283.075 22.3312C283.328 21.9091 282.062 20.9804 280.458 21.0648C278.685 21.1493 277.587 22.2468 277.925 22.5845Z" fill="#263238"/>
<path d="M290.505 22.2468C290.674 22.7534 291.602 22.9222 292.7 22.9222C293.797 22.9222 294.726 22.7534 294.811 22.2468C294.979 21.7402 293.966 21.0648 292.615 21.0648C291.349 20.9804 290.336 21.7402 290.505 22.2468Z" fill="#263238"/>
<path d="M297.09 15.746C297.09 15.746 292.362 18.0255 286.199 14.9861C282.146 12.9599 277.419 11.9468 276.405 12.7911C275.392 13.6353 275.139 17.7722 271.171 18.9542C271.171 18.9542 271.424 26.8902 268.3 26.637C265.092 26.3837 267.119 14.0574 267.119 14.0574L274.886 10.2583L283.328 8.65417L291.264 9.75171L297.428 11.4402L297.09 15.746Z" fill="#263238"/>
<path d="M244.07 61.674C252.344 53.1469 266.95 54.0756 266.95 54.0756L279.023 62.6871L285.861 54.751C285.861 54.751 293.038 55.5109 299.792 59.0568L300.298 59.2256V59.31C305.617 62.1805 313.131 69.1035 320.223 75.7732L311.696 83.7092L302.24 92.1518C302.24 92.1518 302.24 92.2363 302.24 92.3207C302.156 92.8273 303.591 104.394 305.026 113.174C296.415 121.363 285.439 124.909 273.197 122.799C269.314 122.123 267.456 121.194 263.826 120.266C258.507 118.915 254.708 114.272 254.201 108.784C253.526 101.439 253.104 92.3207 253.104 92.3207" fill="#455A64"/>
<path d="M293.375 56.2706C293.375 56.2706 293.628 56.7772 293.882 57.6215C294.219 58.4657 294.641 59.8165 295.148 61.4206C296.161 64.6288 297.427 69.1034 298.609 74.0001C299.791 78.9813 300.72 83.5403 301.311 86.8329C301.564 88.5215 301.818 89.7878 301.902 90.7165C302.071 91.6452 302.071 92.1518 302.071 92.1518C302.071 92.1518 301.902 91.6452 301.733 90.7165C301.564 89.7034 301.311 88.437 300.973 86.8329C300.298 83.5403 299.369 79.0657 298.187 74.0846C297.005 69.1034 295.739 64.7133 294.81 61.5051C294.388 59.9854 293.966 58.6346 293.713 57.7059C293.544 56.7772 293.375 56.2706 293.375 56.2706Z" fill="#263238"/>
<path d="M309.565 80.1926C314.084 76.5114 317.676 73.4392 317.587 73.3308C317.499 73.2223 313.764 76.1187 309.245 79.7999C304.727 83.4811 301.135 86.5533 301.223 86.6617C301.312 86.7702 305.047 83.8738 309.565 80.1926Z" fill="#263238"/>
<path opacity="0.2" d="M254.961 73.4092L247.531 97.8084L250.317 99.2436L253.019 92.3207C253.019 92.3207 255.805 77.7993 254.961 73.4092Z" fill="black"/>
<path opacity="0.2" d="M292.615 56.2707C296.583 58.3813 286.621 63.4469 282.062 63.2781L285.354 54.5822C285.354 54.6666 291.264 55.5953 292.615 56.2707Z" fill="black"/>
<path d="M265.684 54.6665V48.2501C265.684 48.2501 278.263 51.4583 278.77 59.0567C278.77 59.0567 280.374 50.6985 286.875 50.2764L287.803 62.0116L280.205 68.5969H272.522L266.443 63.3624L265.684 55.2575" fill="#455A64"/>
<path d="M281.639 95.191C281.639 95.191 281.639 94.6844 281.639 93.8402C281.639 92.9115 281.639 91.6451 281.639 90.041C281.639 86.8328 281.555 82.4426 281.133 77.6303C280.711 72.818 280.12 68.4279 279.529 65.3041C279.275 63.7844 279.022 62.518 278.853 61.5894C278.684 60.7451 278.6 60.2385 278.684 60.2385C278.684 60.2385 278.853 60.7451 279.022 61.5894C279.275 62.4336 279.529 63.7 279.782 65.3041C280.373 68.4279 281.048 72.818 281.471 77.7148C281.893 82.6115 281.893 87.0016 281.808 90.2098C281.724 91.8139 281.724 93.0803 281.639 94.009C281.724 94.6844 281.639 95.191 281.639 95.191Z" fill="#263238"/>
<path d="M278.178 56.7771C278.178 56.7771 277.925 56.6926 277.418 56.8615C276.912 57.0304 276.489 57.6213 276.152 58.4656C275.392 60.1541 274.379 62.6025 273.788 65.473L273.703 65.7262L273.45 65.5574C272.69 65.1353 271.93 64.6287 271.171 64.1222C269.651 63.109 268.3 62.0115 267.118 60.9984C266.527 60.4918 266.021 59.8164 265.767 59.141C265.514 58.4656 265.345 57.7902 265.345 57.1992C265.261 56.0172 265.514 55.0041 265.598 54.4131C265.767 53.7377 265.852 53.4 265.852 53.4C265.852 53.4 265.852 53.7377 265.767 54.4131C265.683 55.0885 265.514 56.0172 265.598 57.1992C265.683 57.7902 265.767 58.3812 266.021 59.0566C266.274 59.6476 266.78 60.2385 267.371 60.7451C268.553 61.7582 269.989 62.7713 271.424 63.7845C272.184 64.291 272.943 64.7976 273.703 65.2197L273.366 65.3885C274.041 62.5181 275.054 60.0697 275.898 58.3812C276.067 57.959 276.321 57.6213 276.574 57.2836C276.827 57.0304 277.08 56.7771 277.418 56.7771C277.925 56.6082 278.262 56.7771 278.178 56.7771Z" fill="#263238"/>
<path d="M286.873 50.2764C286.873 50.2764 286.958 50.6141 286.958 51.2895C287.042 52.0493 287.042 52.978 287.127 54.0755C287.211 55.2575 287.38 56.6083 287.633 58.128C287.718 58.8878 287.971 59.6477 287.802 60.5764C287.549 61.5051 286.873 62.1805 286.114 62.687C285.101 63.4469 284.087 64.0378 283.328 64.7977L282.99 65.1354V64.6288C282.821 61.9272 281.892 59.7321 281.132 58.3813C280.373 56.946 279.697 56.1862 279.697 56.1862C279.697 56.1862 279.866 56.3551 280.204 56.6928C280.542 57.0305 280.879 57.537 281.386 58.2969C282.23 59.7321 283.243 61.9272 283.412 64.7133L283.074 64.6288C283.834 63.7846 284.932 63.1936 285.86 62.4337C286.536 61.9272 287.127 61.2518 287.38 60.5764C287.549 59.8165 287.296 59.0567 287.211 58.2969C286.958 56.7772 286.873 55.3419 286.789 54.2444C286.705 53.0624 286.705 52.1337 286.705 51.4583C286.789 50.6141 286.873 50.2764 286.873 50.2764Z" fill="#263238"/>
<path d="M327.483 51.8804C326.976 52.4714 308.402 77.2927 308.402 77.2927L311.02 78.8123L330.1 54.3287L327.483 51.8804Z" fill="#263238"/>
<path d="M252.935 71.4673C252.935 71.4673 272.437 99.5813 273.619 100.088C275.899 101.185 302.662 78.0526 305.195 75.8575C305.533 75.3509 306.292 74.4222 307.728 72.396C307.728 72.396 309.838 62.7714 312.118 63.5313C314.397 64.2911 310.851 68.428 312.371 72.0583C313.806 75.6886 320.56 66.9927 320.814 66.2329L322.502 63.9534C322.502 63.9534 324.275 69.1034 324.191 71.214C323.769 78.137 317.268 86.2419 317.268 86.2419C317.268 86.2419 288.056 122.461 267.963 123.558C262.222 123.896 251.922 107.517 245.083 95.2755C240.946 87.846 242.973 78.5591 249.896 73.4936L252.935 71.4673Z" fill="#FFBE9D"/>
<path d="M320.814 72.5648C320.729 72.5648 321.405 71.3829 322.08 70.0321C322.756 68.5968 323.262 67.4993 323.347 67.4993C323.431 67.4993 323.009 68.7657 322.334 70.1165C321.658 71.5517 320.898 72.5648 320.814 72.5648Z" fill="#EB996E"/>
<path d="M249.558 57.7903C249.558 57.7903 228.62 65.2198 244.154 100.51L268.385 85.9042L264.923 77.6304L249.558 57.7903Z" fill="#455A64"/>
<path d="M247.954 58.3813C247.954 58.3813 248.883 58.2124 250.487 58.6345C251.247 58.8034 252.26 59.2255 253.273 59.8165C254.286 60.4075 255.299 61.2517 256.312 62.3493C258.338 64.4599 260.28 67.4149 261.969 70.8763C263.742 74.3378 265.43 78.2214 267.119 82.2739C267.625 83.5403 268.132 84.7222 268.638 85.8198L268.723 85.9886L268.554 86.0731C261.547 89.8722 255.468 93.5026 251.162 96.1198C248.967 97.4706 247.279 98.5681 246.097 99.328C245.506 99.6657 245.083 100.003 244.746 100.172C244.408 100.341 244.239 100.426 244.239 100.426C244.239 100.426 244.408 100.257 244.661 100.088C244.999 99.8345 245.421 99.5813 246.012 99.1591C247.194 98.3149 248.883 97.2173 250.993 95.8665C255.299 93.1649 261.378 89.5345 268.385 85.6509L268.301 85.9042C267.794 84.7222 267.288 83.5403 266.781 82.3583C265.093 78.2214 263.404 74.3378 261.715 70.9608C259.943 67.5837 258.17 64.6288 256.143 62.5181C255.13 61.4206 254.117 60.5763 253.188 59.9854C252.26 59.3944 251.331 58.9722 250.487 58.8034C248.883 58.3813 247.954 58.4657 247.954 58.3813Z" fill="#263238"/>
<path d="M293.038 6.12146C293.038 6.12146 293.122 6.20588 293.122 6.45916C293.122 6.71244 293.206 7.05015 293.206 7.5567C293.122 8.48539 292.784 9.92064 291.602 11.187C290.42 12.4534 288.225 13.2977 285.946 12.6223C284.848 12.2846 283.751 11.6092 283.075 10.5116C282.738 10.0051 282.569 9.24523 282.653 8.56982C282.738 7.89441 283.075 7.219 283.666 6.79687C284.257 6.37473 285.101 6.37474 285.692 6.62802C286.283 6.88129 286.874 7.38785 287.043 7.97883C287.55 9.24523 287.212 10.596 286.452 11.5247C285.017 13.4665 282.4 13.6354 280.88 12.7067C280.12 12.369 279.445 12.0313 278.769 11.9469C278.094 11.778 277.588 11.9469 277.165 12.1157C276.321 12.5379 275.983 12.96 275.983 12.8756C275.983 12.8756 276.068 12.7911 276.237 12.6223C276.321 12.5379 276.406 12.4534 276.574 12.2846C276.743 12.2001 276.912 12.0313 277.081 11.9469C277.503 11.6936 278.094 11.6092 278.769 11.6936C279.445 11.778 280.205 12.1157 280.965 12.4534C281.387 12.6223 281.724 12.7911 282.147 12.8756C282.569 12.96 283.075 12.96 283.497 12.8756C284.426 12.7067 285.355 12.2001 286.03 11.3559C286.621 10.5116 286.959 9.32966 286.537 8.23212C286.199 7.219 284.764 6.54359 283.751 7.13457C283.244 7.47228 282.991 7.97883 282.906 8.56982C282.822 9.1608 282.991 9.66736 283.244 10.1739C283.835 11.187 284.848 11.778 285.861 12.1157C287.972 12.7067 290.083 12.0313 291.18 10.8493C292.362 9.66736 292.7 8.31654 292.869 7.38785C293.206 6.62802 293.038 6.12146 293.038 6.12146Z" fill="#455A64"/>
<path d="M288.478 37.9501C288.478 38.0345 288.225 38.1189 287.718 38.1189C287.296 38.1189 286.621 38.0345 285.945 37.6968C285.27 37.3591 284.848 36.937 284.595 36.5149C284.341 36.0927 284.257 35.8394 284.341 35.8394C284.426 35.755 285.017 36.7681 286.199 37.2747C287.381 37.9501 288.478 37.8657 288.478 37.9501Z" fill="#263238"/>
<path d="M266.358 34.2354C266.358 34.2354 266.612 34.5731 266.358 35.1641C266.189 35.4173 265.936 35.755 265.514 35.8395C265.092 35.9239 264.585 35.8395 264.163 35.5018C263.826 35.1641 263.572 34.7419 263.572 34.2354C263.572 33.8132 263.741 33.4755 263.994 33.2223C264.417 32.7157 264.839 32.7157 264.839 32.7157C264.839 32.8001 264.501 32.969 264.248 33.3911C263.994 33.8132 263.826 34.5731 264.417 35.0796C264.67 35.3329 265.092 35.4173 265.345 35.3329C265.683 35.2485 265.852 35.0796 266.021 34.9108C266.358 34.5731 266.274 34.2354 266.358 34.2354Z" fill="#263238"/>
<path d="M294.472 8.99194C294.472 8.99194 294.81 9.4985 294.894 10.5116C294.979 11.5247 294.641 12.96 293.628 14.1419C292.615 15.3239 291.18 15.8305 290.167 15.9149C289.153 15.9993 288.562 15.746 288.562 15.746C288.562 15.6616 289.153 15.746 290.082 15.6616C291.011 15.4928 292.277 14.9862 293.206 13.8887C294.135 12.7911 294.472 11.4403 294.472 10.5116C294.557 9.58293 294.388 8.99194 294.472 8.99194Z" fill="#455A64"/>
<path d="M253.475 86.0615C260.413 82.631 265.987 79.7485 265.925 79.6231C265.863 79.4977 260.189 82.177 253.25 85.6074C246.312 89.0378 240.738 91.9204 240.8 92.0458C240.862 92.1712 246.537 89.4919 253.475 86.0615Z" fill="#E0E0E0"/>
<path d="M249.762 76.2582C255.925 72.9507 260.867 70.1695 260.8 70.0463C260.734 69.923 255.685 72.5044 249.522 75.8119C243.36 79.1194 238.418 81.9006 238.484 82.0238C238.55 82.1471 243.599 79.5657 249.762 76.2582Z" fill="#E0E0E0"/>
<path d="M255.974 62.265C255.974 62.3494 255.045 62.856 253.526 63.7003C251.837 64.6289 249.811 65.8109 247.447 67.0773C245.167 68.4281 243.057 69.6101 241.453 70.5388C239.933 71.3831 238.92 71.974 238.92 71.8896C238.92 71.8052 239.764 71.2142 241.284 70.2855C242.804 69.3568 244.914 68.0904 247.278 66.7396C249.642 65.3888 251.837 64.2912 253.441 63.447C254.876 62.6871 255.89 62.265 255.974 62.265Z" fill="#E0E0E0"/>
<path d="M274.464 60.492C274.464 60.5765 273.788 60.492 272.859 60.0699C271.931 59.6478 270.664 58.8879 269.482 57.8748C268.3 56.7773 267.372 55.6797 266.696 54.9199C266.021 54.0756 265.683 53.5691 265.768 53.5691C265.852 53.5691 266.274 53.9912 266.95 54.7511C267.625 55.5109 268.638 56.6084 269.736 57.6216C270.918 58.6347 272.1 59.3945 273.028 59.9011C273.873 60.2388 274.464 60.4076 274.464 60.492Z" fill="#E0E0E0"/>
<path d="M286.789 55.8486C286.874 55.8486 286.367 57.2839 285.016 58.3814C283.666 59.479 282.23 59.8167 282.23 59.6478C282.146 59.5634 283.497 59.0568 284.763 58.0437C286.03 57.0306 286.705 55.8486 286.789 55.8486Z" fill="#E0E0E0"/>
<path d="M308.741 68.5969C308.741 68.5969 308.572 68.6813 308.234 68.6813C307.897 68.7658 307.39 68.7658 306.883 68.8502C305.701 69.0191 304.013 69.1035 301.902 69.2723C297.681 69.61 291.771 69.9477 285.355 70.201C278.854 70.4543 273.029 70.5387 268.723 70.4543C266.612 70.4543 264.839 70.3699 263.657 70.3699C263.066 70.3699 262.644 70.2854 262.306 70.2854C261.969 70.2854 261.8 70.2854 261.8 70.201C261.8 70.201 261.969 70.201 262.306 70.201C262.644 70.201 263.151 70.201 263.657 70.201C264.924 70.201 266.612 70.201 268.723 70.201C272.944 70.1166 278.854 70.0322 285.27 69.7789C291.771 69.5256 297.597 69.2723 301.818 69.0191C303.928 68.8502 305.617 68.7658 306.799 68.6813C307.39 68.6813 307.812 68.5969 308.15 68.5969C308.572 68.5969 308.741 68.5969 308.741 68.5969Z" fill="#E0E0E0"/>
<path d="M302.071 78.5593C302.071 78.5593 301.564 78.6437 300.72 78.8126C299.791 78.897 298.525 79.0659 296.921 79.2347C293.713 79.5724 289.238 79.8257 284.341 80.079C279.445 80.2478 274.97 80.3323 271.762 80.3323C270.158 80.3323 268.807 80.2479 267.963 80.2479C267.034 80.2479 266.527 80.1634 266.527 80.1634C266.527 80.1634 267.034 80.079 267.963 80.079C268.976 80.079 270.242 80.079 271.762 79.9946C274.97 79.9101 279.445 79.8257 284.341 79.6569C289.238 79.488 293.713 79.2347 296.921 78.9815C298.44 78.897 299.791 78.8126 300.72 78.7282C301.564 78.5593 302.071 78.5593 302.071 78.5593Z" fill="#E0E0E0"/>
<path d="M286.959 90.9699C286.959 91.0543 285.861 91.2232 284.173 91.392C282.4 91.5609 280.036 91.7297 277.419 91.8986C274.801 92.0674 272.353 92.0674 270.58 92.0674C268.807 92.0674 267.794 91.983 267.794 91.983C267.794 91.8986 268.891 91.8986 270.58 91.8142C272.437 91.7297 274.801 91.6453 277.419 91.4764C280.036 91.3076 282.315 91.2232 284.173 91.1387C285.861 90.9699 286.959 90.8855 286.959 90.9699Z" fill="#E0E0E0"/>
<path d="M267.625 61.674C267.625 61.7584 265.008 61.8428 261.884 61.9273C258.676 62.0961 256.143 62.265 256.059 62.0961C256.059 62.0117 258.591 61.5895 261.8 61.5051C265.008 61.3363 267.625 61.5051 267.625 61.674Z" fill="#E0E0E0"/>
<path d="M303.235 61.1591C303.235 61.0192 299.872 60.8931 295.722 60.8774C291.572 60.8617 288.208 60.9624 288.207 61.1023C288.206 61.2422 291.57 61.3683 295.72 61.384C299.87 61.3997 303.234 61.299 303.235 61.1591Z" fill="#E0E0E0"/>
<path d="M304.519 112.583C304.519 112.583 304.266 112.752 303.759 113.005C303.252 113.258 302.493 113.596 301.564 114.018C299.707 114.778 297.005 115.707 293.966 116.467C290.926 117.142 288.14 117.48 286.114 117.564C285.101 117.649 284.257 117.649 283.666 117.649C283.075 117.649 282.821 117.649 282.821 117.564C282.821 117.48 284.088 117.48 286.114 117.227C288.14 117.058 290.926 116.636 293.881 115.96C296.92 115.285 299.538 114.356 301.479 113.681C303.337 113.005 304.519 112.499 304.519 112.583Z" fill="#E0E0E0"/>
<path d="M76.4833 213.996C96.673 213.996 113.04 198.385 113.04 179.128C113.04 159.871 96.673 144.26 76.4833 144.26C56.2937 144.26 39.9268 159.871 39.9268 179.128C39.9268 198.385 56.2937 213.996 76.4833 213.996Z" fill="#E0E0E0"/>
<path d="M68.9702 95.0394C63.1448 95.3771 60.8653 101.371 60.1899 102.722C59.5145 104.073 59.4301 105.593 59.2612 107.112C59.0924 108.632 58.9235 110.152 58.1637 111.503C56.8973 113.529 54.1956 114.626 53.4358 116.906C52.5915 119.523 54.7022 122.225 54.1956 124.926C53.8579 126.362 52.8448 127.544 52.5071 128.979C52.085 130.414 52.5071 132.018 53.2669 133.369C55.2088 136.662 59.0924 138.266 62.8915 138.435C66.6907 138.603 70.4055 137.421 73.9514 136.324" fill="#263238"/>
<path d="M94.5512 102.553C93.9602 103.82 94.5512 105.255 95.3955 106.268C96.3242 107.281 97.5061 107.957 98.5193 108.801C99.5324 109.645 100.545 110.743 100.63 112.094C100.714 113.36 100.123 114.542 100.292 115.808C100.714 118.932 105.78 119.945 106.033 123.069C106.202 125.18 104.007 127.122 104.682 129.148C104.936 129.908 105.527 130.499 105.949 131.258C107.384 133.622 106.371 136.915 104.345 138.772C102.234 140.63 99.3635 141.305 96.6619 141.39C94.298 141.474 91.6807 141.136 90.3299 139.194C89.0635 137.506 89.3168 135.142 89.5701 133.031C90.752 123.153 90.5832 113.107 90.3299 103.144" fill="#263238"/>
<path d="M70.4892 148.312C70.5736 143.078 70.4892 137.675 70.4892 137.675C70.4892 137.675 63.8195 136.493 62.5531 127.712C61.2867 119.354 63.3973 101.371 63.3973 101.371C73.1064 97.5722 83.9974 99.0075 90.7515 106.859L89.7383 149.072C89.6539 153.969 85.2637 157.768 80.0293 157.599C74.7105 157.43 70.4892 153.294 70.4892 148.312Z" fill="#FFBE9D"/>
<path d="M65.2549 115.217C65.2549 115.808 65.677 116.315 66.3524 116.399C66.9434 116.399 67.45 115.977 67.5344 115.386C67.5344 114.795 67.1123 114.289 66.4369 114.204C65.7614 114.204 65.2549 114.626 65.2549 115.217Z" fill="#263238"/>
<path d="M63.3975 114.373C63.5663 114.542 64.4106 113.866 65.5925 113.951C67.8721 114.289 67.7876 114.626 67.7876 114.457C67.872 114.373 67.7032 114.12 67.3655 113.866C67.0278 113.613 66.3524 113.275 65.5925 113.275C64.8327 113.275 64.2417 113.529 63.8196 113.782C63.4819 114.035 63.3975 114.289 63.3975 114.373Z" fill="#263238"/>
<path d="M77.5811 115.555C77.5811 116.146 78.0032 116.653 78.6786 116.737C79.2696 116.737 79.7761 116.315 79.8606 115.724C79.8606 115.133 79.4384 114.626 78.763 114.542C78.0876 114.542 77.5811 114.964 77.5811 115.555Z" fill="#263238"/>
<path d="M75.9766 114.795C76.1454 114.964 76.9897 114.289 78.1717 114.373C79.3536 114.373 80.2823 114.964 80.3668 114.88C80.4512 114.795 80.2823 114.542 79.9446 114.289C79.6069 114.035 78.9315 113.698 78.1717 113.698C77.4118 113.698 76.8209 113.951 76.3987 114.204C76.061 114.457 75.8922 114.711 75.9766 114.795Z" fill="#263238"/>
<path d="M71.5024 123.407C71.5024 123.322 70.7426 123.238 69.5606 123.069C69.2229 123.069 68.9696 122.985 68.8852 122.731C68.8008 122.478 68.9696 122.14 69.1385 121.803C69.4762 121.043 69.7294 120.283 70.0671 119.439C71.3335 116.146 72.3467 113.36 72.1778 113.36C72.009 113.276 70.9114 115.977 69.5606 119.27C69.2229 120.114 68.9696 120.874 68.6319 121.634C68.5475 121.971 68.2942 122.394 68.463 122.816C68.5475 123.069 68.8008 123.238 68.9696 123.238C69.1385 123.322 69.3073 123.322 69.4762 123.322C70.7426 123.491 71.5024 123.491 71.5024 123.407Z" fill="#263238"/>
<path d="M70.4893 137.675C70.4893 137.675 76.3991 138.097 82.2245 134.72C82.2245 134.72 79.354 140.714 70.5737 139.785L70.4893 137.675Z" fill="#EB996E"/>
<path d="M72.009 126.362C72.4312 125.771 73.191 125.517 73.9508 125.602C74.4574 125.686 74.9639 125.939 75.3016 126.362C75.6394 126.784 75.6394 127.375 75.3861 127.797C75.0484 128.219 74.373 128.388 73.782 128.219C73.191 128.05 72.6844 127.628 72.2623 127.29C72.0935 127.206 72.009 127.037 71.9246 126.953C71.8402 126.699 71.8402 126.53 72.009 126.362Z" fill="#EB996E"/>
<path d="M75.0487 124.335C74.8798 124.335 74.7954 125.602 73.6978 126.531C72.6003 127.459 71.165 127.29 71.165 127.459C71.165 127.544 71.5027 127.712 72.0937 127.712C72.6847 127.712 73.529 127.544 74.2044 127.037C74.8798 126.446 75.2175 125.686 75.2175 125.18C75.3019 124.589 75.1331 124.335 75.0487 124.335Z" fill="#263238"/>
<path d="M86.9521 100.696C83.7439 105.255 75.3012 109.983 69.2225 110.996C69.898 110.067 73.6127 107.788 74.3725 106.859C71.5865 108.885 67.7029 111.671 64.0725 111.84C63.6504 111.84 63.1439 111.84 62.8061 111.671C62.2996 111.418 62.2152 110.827 62.1307 110.321C61.8775 108.21 62.0463 104.495 62.384 102.385C62.7217 100.274 63.7348 98.1632 65.5078 96.728C67.8717 94.955 71.1643 94.4485 74.3725 94.3641C76.9898 94.2796 79.7758 94.4485 82.1398 95.3772C84.5881 96.3059 86.6144 98.2477 86.9521 100.443" fill="#263238"/>
<path d="M96.1545 121.043C96.5766 118.763 96.9143 116.653 96.9988 115.217C97.252 110.743 95.9856 94.1108 80.4512 95.3772L79.8602 100.105C79.8602 100.105 77.4963 116.315 87.543 116.399C87.543 116.399 88.134 121.212 92.693 125.939C92.5242 126.024 95.2258 125.939 96.1545 121.043Z" fill="#263238"/>
<path d="M87.4592 116.484C88.3879 116.315 89.401 116.315 90.2453 116.737C91.0896 117.075 91.9338 117.75 92.2715 118.594C92.6092 119.439 92.6092 120.452 92.2715 121.38C91.9338 122.309 91.3429 123.069 90.6674 123.744C90.1609 124.251 89.6543 124.673 88.9789 124.842C88.3035 125.011 87.5437 124.926 87.0371 124.504" fill="#FFBE9D"/>
<path d="M87.8807 122.14C87.7962 122.14 88.1339 122.731 89.0626 122.562C89.4848 122.478 89.9069 122.14 90.1602 121.634C90.4134 121.212 90.5823 120.705 90.6667 120.114C90.7512 119.523 90.5823 118.932 90.329 118.425C89.9913 118.003 89.5692 117.666 89.1471 117.666C88.3028 117.666 87.9651 118.257 88.0495 118.257C88.1339 118.341 88.4716 118.003 89.0626 118.172C89.6536 118.257 90.1602 119.016 89.9913 120.03C89.9069 120.958 89.4848 121.887 88.9782 122.056C88.3872 122.309 87.9651 122.056 87.8807 122.14Z" fill="#EB996E"/>
<path d="M89.1481 98.923C90.3301 99.5984 91.7653 99.7673 93.1161 99.4296C94.467 99.0919 95.6489 98.1632 96.3243 96.9812C96.7465 96.2214 96.9997 95.2927 96.8309 94.4484C96.4932 93.2665 95.3956 92.5066 94.2137 92.1689C92.5252 91.7468 90.5833 92.1689 89.317 93.3509C88.0506 94.5329 87.4596 96.4747 88.0506 98.1632C88.6415 99.8517 90.3301 101.034 92.103 100.949" fill="#263238"/>
<path d="M90.5831 124.167C89.7389 124.757 88.8102 125.433 88.1348 126.277C87.4594 127.121 86.9528 128.135 87.1217 129.232C87.2061 129.823 87.375 130.414 87.2905 131.005C87.2061 131.849 86.5307 132.44 86.0241 133.116C84.9266 134.889 85.3487 137.421 86.784 138.941C88.2192 140.461 90.4143 141.221 92.525 141.305C93.7913 141.305 95.0577 141.136 96.0709 140.461C97.5061 139.448 98.0971 137.506 98.0971 135.733" fill="#263238"/>
<path d="M91.5965 102.469C91.6809 102.469 91.3432 103.144 90.6678 104.073C89.9924 105.002 88.9793 106.184 87.7129 107.366C86.3621 108.463 85.0112 109.308 83.9981 109.814C82.985 110.321 82.3096 110.489 82.3096 110.489C82.2252 110.321 84.8424 109.308 87.4596 107.028C89.9924 104.749 91.5121 102.385 91.5965 102.469Z" fill="#455A64"/>
<path d="M93.2001 102.385C93.2845 102.385 93.2001 103.229 92.9468 104.495C92.6091 105.762 92.0181 107.535 91.005 109.307C89.9075 111.08 88.7255 112.431 87.7124 113.276C86.6993 114.12 86.0239 114.542 85.9394 114.542C85.855 114.457 88.5566 112.516 90.6673 109.054C92.6935 105.593 93.1157 102.3 93.2001 102.385Z" fill="#455A64"/>
<path d="M59.5141 109.392C59.6829 109.392 59.8518 110.827 60.2739 112.6C60.7805 114.289 61.3714 115.639 61.287 115.724C61.2026 115.808 60.3583 114.542 59.8518 112.769C59.3452 110.912 59.3452 109.392 59.5141 109.392Z" fill="#455A64"/>
<path d="M96.7459 139.279C96.7459 139.194 97.1681 139.701 98.0123 139.701C98.4345 139.701 99.0254 139.617 99.532 139.194C100.039 138.857 100.461 138.266 100.63 137.506C100.798 136.746 100.798 135.902 100.63 134.973C100.461 134.044 100.123 133.116 99.7853 132.103C99.4476 131.09 99.1943 129.908 99.4476 128.726C99.6164 127.459 100.461 126.446 100.798 125.349C101.221 124.251 101.052 122.985 100.545 122.056C100.039 121.043 99.1943 120.283 98.2656 119.945C97.759 119.776 97.2525 119.523 96.8304 119.27C96.4082 119.017 95.9017 118.679 95.6484 118.257C95.1418 117.328 95.1418 116.399 95.1418 115.64C95.1418 114.795 95.2263 114.12 95.0574 113.529C94.8886 112.938 94.7197 112.431 94.382 112.094C93.791 111.418 93.2 111.418 93.2845 111.418C93.2845 111.418 93.4533 111.418 93.6222 111.418C93.8754 111.503 94.2131 111.671 94.5508 112.009C94.8886 112.347 95.1418 112.853 95.3107 113.529C95.4795 114.204 95.4795 114.964 95.4795 115.724C95.4795 116.484 95.4795 117.412 95.9861 118.172C96.4927 118.932 97.4213 119.27 98.4345 119.692C99.4476 120.03 100.461 120.874 100.967 121.971C101.474 123.069 101.727 124.42 101.221 125.602C100.798 126.784 100.039 127.797 99.8697 128.894C99.7008 129.992 99.9541 131.09 100.207 132.103C100.545 133.116 100.883 134.129 101.052 135.058C101.221 135.986 101.221 136.915 100.967 137.759C100.714 138.603 100.292 139.194 99.7008 139.617C99.1099 139.954 98.5189 140.123 98.0967 140.039C97.5902 140.039 97.2525 139.87 97.0836 139.701C96.8304 139.363 96.7459 139.279 96.7459 139.279Z" fill="#455A64"/>
<path d="M90.667 138.688C90.667 138.688 90.7514 138.941 91.1736 139.11C91.5113 139.279 92.3555 139.279 92.7777 138.688C93.1998 138.012 93.1998 136.999 92.6088 136.071C92.1023 135.142 91.1736 134.213 90.9203 132.778C90.7514 132.103 90.9203 131.343 91.4269 130.836C91.849 130.33 92.3555 129.992 92.6088 129.57C93.2842 128.726 93.2842 127.712 93.1998 126.868C93.1154 126.024 92.8621 125.433 92.6932 124.926C92.5244 124.504 92.44 124.251 92.5244 124.251C92.5244 124.251 92.6933 124.504 92.8621 124.926C93.031 125.349 93.3687 126.024 93.4531 126.868C93.6219 127.712 93.6219 128.894 92.8621 129.823C92.5244 130.33 92.0178 130.667 91.6801 131.09C91.3424 131.512 91.1736 132.103 91.3424 132.694C91.5113 133.876 92.44 134.804 92.9465 135.902C93.4531 136.915 93.5375 138.181 92.9465 138.941C92.6932 139.363 92.1867 139.532 91.849 139.532C91.5113 139.532 91.1736 139.532 90.9203 139.363C90.5826 139.026 90.5826 138.688 90.667 138.688Z" fill="#455A64"/>
<path d="M57.5724 136.493C57.5724 136.493 57.3191 136.239 56.897 135.817C56.4748 135.311 55.8839 134.635 55.4617 133.622C55.2085 133.116 55.124 132.44 55.124 131.765C55.124 131.089 55.3773 130.33 55.8839 129.739C56.3904 129.148 57.1503 128.81 57.6568 128.219C58.1634 127.628 58.1634 126.868 57.9945 126.024C57.8257 125.264 57.4035 124.504 57.0658 123.829C56.7281 123.153 56.3904 122.394 56.2216 121.634C56.0527 120.874 56.2216 120.03 56.6437 119.523C57.0658 118.932 57.488 118.594 57.9101 118.172C58.7544 117.497 59.2609 116.737 59.3453 116.146C59.4298 115.555 59.2609 115.217 59.3453 115.217C59.3453 115.217 59.4298 115.302 59.5142 115.471C59.5986 115.639 59.5986 115.893 59.5986 116.23C59.5142 116.906 59.0076 117.75 58.1634 118.51C57.7412 118.932 57.3191 119.27 56.9814 119.861C56.6437 120.367 56.4748 121.043 56.6437 121.718C56.7281 122.394 57.0658 123.069 57.488 123.829C57.8257 124.504 58.2478 125.264 58.5011 126.193C58.6699 127.037 58.6699 128.05 58.0789 128.725C57.488 129.401 56.7281 129.654 56.306 130.245C55.8839 130.752 55.6306 131.427 55.6306 132.018C55.6306 132.609 55.715 133.2 55.8839 133.707C56.306 134.72 56.8125 135.395 57.2347 135.902C57.3191 136.155 57.5724 136.408 57.5724 136.493Z" fill="#455A64"/>
<path d="M92.7777 100.021C92.6933 100.105 92.1023 98.7542 90.7514 97.8255C89.4006 96.8124 88.0498 96.5591 88.0498 96.4747C88.0498 96.3903 89.5695 96.3903 91.0047 97.4878C92.44 98.5854 92.8621 100.021 92.7777 100.021Z" fill="#E8505B"/>
<path d="M93.96 92.0001C94.0444 92.0001 94.2977 92.3378 94.551 92.9288C94.8043 93.6042 94.8887 94.5329 94.6354 95.6305C94.3821 96.6436 93.7067 97.4878 93.2002 97.91C92.6936 98.3321 92.2715 98.5009 92.2715 98.4165C92.2715 98.3321 92.6092 98.1632 93.0313 97.6567C93.4535 97.1501 93.96 96.4747 94.2977 95.546C94.551 94.6173 94.4666 93.6886 94.3821 93.0977C94.0444 92.3378 93.8756 92.0001 93.96 92.0001Z" fill="#455A64"/>
<path opacity="0.3" d="M51.0713 195.844C51.0713 195.844 72.009 215.769 84.5041 212.139C96.9992 208.508 100.629 199.137 100.629 199.137L100.967 195.76L99.7008 194.916L51.6623 191.032L51.0713 195.844Z" fill="black"/>
<path d="M38.6602 177.186L42.7126 166.802L57.2339 175.92L44.3167 195.844C44.3167 195.844 39.0823 189.006 38.6602 177.186Z" fill="#EB996E"/>
<path d="M55.0389 148.481C61.793 144.935 70.4889 143.922 70.4889 143.922C73.0217 148.988 81.0422 149.663 85.8545 146.202L89.907 143.416C89.907 143.416 90.4979 143.416 91.5955 143.5C101.136 144.344 108.987 151.436 110.929 160.892C111.605 164.269 112.195 168.237 111.942 171.867C111.436 181.07 101.895 181.914 101.895 181.914C101.895 181.914 101.389 191.032 100.798 198.377C100.291 203.865 97.5053 208.002 92.4398 210.281C88.725 211.97 86.6143 212.814 81.802 213.574C69.5602 215.516 57.825 210.872 50.0578 202.598C51.493 193.818 52.9283 182.421 52.7594 181.914C52.7594 181.83 52.7594 181.745 52.7594 181.745L43.3037 173.303L37.9004 168.828C37.9848 168.828 49.7201 151.352 55.0389 148.481Z" fill="#E8505B"/>
<path d="M66.775 154.222C66.775 154.307 65.9308 153.547 64.4111 153.547C63.6513 153.547 62.7226 153.8 61.9627 154.391C61.625 154.729 61.2873 155.151 60.8652 155.573C60.5275 155.995 60.0209 156.502 59.3455 156.586C58.6701 156.755 57.9947 156.417 57.5726 156.08C57.066 155.742 56.6439 155.404 56.2218 155.151C55.3775 154.644 54.4488 154.729 53.7734 154.898C53.098 155.151 52.5914 155.573 52.3381 155.911C52.0849 156.248 52.0004 156.502 51.916 156.417C51.916 156.417 51.916 156.164 52.1693 155.742C52.4226 155.404 52.8447 154.898 53.6045 154.56C54.3644 154.222 55.4619 154.138 56.3906 154.729C56.8972 154.982 57.3193 155.32 57.7414 155.573C58.1636 155.826 58.6701 156.08 59.1767 155.995C59.6832 155.911 60.1054 155.489 60.4431 155.151C60.7808 154.729 61.1185 154.307 61.625 153.969C62.4693 153.293 63.4824 153.125 64.3267 153.125C65.1709 153.125 65.7619 153.378 66.0996 153.631C66.6062 153.969 66.775 154.138 66.775 154.222Z" fill="#FAFAFA"/>
<path d="M76.3996 166.802C76.3152 166.886 75.8086 165.957 74.3734 165.451C73.698 165.198 72.7693 165.113 71.8406 165.451C71.4184 165.62 70.9119 165.957 70.4898 166.211C69.9832 166.464 69.3922 166.802 68.7168 166.717C68.0414 166.633 67.5348 166.126 67.1971 165.704C66.8594 165.282 66.5217 164.775 66.184 164.438C65.593 163.678 64.6643 163.425 63.9045 163.425C63.1447 163.425 62.5537 163.678 62.216 163.931C61.8783 164.185 61.7094 164.353 61.625 164.353C61.625 164.353 61.7094 164.1 62.0471 163.847C62.3848 163.594 62.9758 163.256 63.8201 163.171C64.5799 163.087 65.6775 163.34 66.4373 164.184C66.775 164.607 67.1127 165.029 67.4504 165.451C67.7881 165.873 68.2102 166.211 68.7168 166.295C69.2234 166.38 69.7299 166.126 70.2365 165.873C70.743 165.62 71.1652 165.282 71.6717 165.113C72.6848 164.775 73.698 164.86 74.4578 165.198C75.2176 165.451 75.7242 165.957 75.9775 166.295C76.3152 166.548 76.3996 166.802 76.3996 166.802Z" fill="#FAFAFA"/>
<path d="M97.7589 148.312C97.7589 148.397 96.8302 147.89 95.3105 148.144C94.5507 148.312 93.7064 148.735 93.1155 149.494C92.7777 149.832 92.6089 150.339 92.2712 150.845C92.0179 151.352 91.5958 151.858 91.0048 152.196C90.3294 152.449 89.654 152.28 89.1474 152.112C88.6409 151.943 88.1343 151.689 87.6277 151.521C86.6991 151.183 85.7704 151.436 85.1794 151.858C84.504 152.28 84.1663 152.787 83.9974 153.125C83.8286 153.462 83.7441 153.716 83.7441 153.716C83.7441 153.716 83.7441 153.462 83.8286 153.04C83.9974 152.618 84.3351 152.027 85.0105 151.605C85.6859 151.183 86.6991 150.845 87.7966 151.183C88.3032 151.352 88.8097 151.605 89.3163 151.774C89.8228 151.943 90.3294 152.027 90.8359 151.858C91.3425 151.689 91.6802 151.183 91.9335 150.761C92.1868 150.254 92.44 149.748 92.7778 149.326C93.4532 148.481 94.4663 148.059 95.2261 147.975C95.9859 147.806 96.6614 147.975 97.0835 148.059C97.59 148.144 97.7589 148.312 97.7589 148.312Z" fill="#FAFAFA"/>
<path d="M87.8815 162.158C87.7971 162.243 87.4593 161.483 86.3618 161.061C85.8552 160.892 85.0954 160.808 84.42 160.976C84.0823 161.061 83.7446 161.314 83.3225 161.483C82.9003 161.652 82.4782 161.905 81.8872 161.821C81.3807 161.736 80.9585 161.314 80.7052 160.976C80.452 160.639 80.1987 160.217 80.0298 159.963C79.6077 159.372 78.9323 159.119 78.3413 159.119C77.1593 159.119 76.6528 159.71 76.5684 159.71C76.5684 159.71 76.6528 159.541 76.9061 159.288C77.1593 159.119 77.6659 158.866 78.3413 158.866C78.9323 158.866 79.7766 159.119 80.3675 159.794C80.6208 160.132 80.8741 160.47 81.1274 160.808C81.3807 161.145 81.6339 161.398 82.0561 161.483C82.8159 161.652 83.5757 160.892 84.3356 160.723C85.1798 160.47 85.9397 160.639 86.5307 160.892C87.7126 161.399 87.9659 162.243 87.8815 162.158Z" fill="#FAFAFA"/>
<path d="M66.1832 173.894C66.0988 173.978 65.7611 173.218 64.6636 172.796C64.157 172.627 63.3972 172.543 62.7218 172.712C62.384 172.796 62.0463 173.049 61.6242 173.218C61.2021 173.387 60.78 173.64 60.189 173.556C59.6824 173.471 59.2603 173.049 59.007 172.712C58.7537 172.374 58.5004 171.952 58.3316 171.698C57.9095 171.107 57.2341 170.854 56.6431 170.854C55.4611 170.854 54.9545 171.445 54.8701 171.445C54.8701 171.445 54.9545 171.276 55.2078 171.023C55.4611 170.854 55.9677 170.601 56.6431 170.601C57.2341 170.601 58.0783 170.854 58.6693 171.53C58.9226 171.867 59.1759 172.205 59.4291 172.543C59.6824 172.88 59.9357 173.134 60.3578 173.218C61.1177 173.387 61.8775 172.627 62.6373 172.458C63.4816 172.205 64.2414 172.374 64.8324 172.627C65.93 173.049 66.1832 173.894 66.1832 173.894Z" fill="#FAFAFA"/>
<path d="M86.4458 174.147C86.4458 174.231 85.8549 173.64 84.6729 173.64C84.0819 173.64 83.4065 173.725 82.8155 174.231C82.5622 174.485 82.2245 174.738 81.9712 175.076C81.6335 175.413 81.2958 175.751 80.7049 175.835C80.1139 175.92 79.6917 175.666 79.2696 175.413C78.9319 175.16 78.5942 174.907 78.2565 174.653C77.6655 174.231 76.9057 174.231 76.3991 174.4C75.3016 174.738 74.9639 175.582 74.9639 175.498C74.9639 175.498 74.9639 175.329 75.1327 174.991C75.3016 174.738 75.7237 174.316 76.3147 174.062C76.9057 173.809 77.7499 173.809 78.5098 174.231C78.8475 174.485 79.1852 174.738 79.5229 174.991C79.8606 175.244 80.1983 175.413 80.6204 175.329C81.3803 175.244 81.8868 174.316 82.5622 173.809C83.2376 173.303 84.0819 173.218 84.6729 173.218C86.0237 173.387 86.5303 174.147 86.4458 174.147Z" fill="#FAFAFA"/>
<path d="M79.7759 183.434C79.7759 183.518 79.1849 182.927 78.003 182.927C77.412 182.927 76.7366 183.012 76.1456 183.518C75.8923 183.771 75.5546 184.025 75.3013 184.362C74.9636 184.7 74.6259 185.038 74.0349 185.122C73.4439 185.207 73.0218 184.953 72.5997 184.7C72.262 184.447 71.9243 184.194 71.5866 183.94C70.9956 183.518 70.2357 183.518 69.7292 183.687C68.6316 184.025 68.2939 184.869 68.2939 184.784C68.2939 184.784 68.2939 184.616 68.4628 184.278C68.6316 184.025 69.0538 183.603 69.6448 183.349C70.2357 183.096 71.08 183.096 71.8398 183.518C72.1775 183.771 72.5153 184.025 72.853 184.278C73.1907 184.531 73.5284 184.7 73.9505 184.616C74.7103 184.531 75.2169 183.603 75.8923 183.096C76.5677 182.589 77.412 182.505 78.003 182.505C79.2694 182.674 79.7759 183.349 79.7759 183.434Z" fill="#FAFAFA"/>
<path d="M65.5924 206.398C65.508 206.482 65.1703 205.722 64.0727 205.3C63.5662 205.131 62.8063 205.047 62.1309 205.3C61.7932 205.384 61.4555 205.638 61.0334 205.807C60.6113 205.975 60.1891 206.229 59.5981 206.144C59.0916 206.06 58.6695 205.638 58.4162 205.3C58.1629 204.962 57.9096 204.625 57.7408 204.287C57.3186 203.696 56.6432 203.443 56.0523 203.443C54.8703 203.443 54.3637 204.118 54.2793 204.034C54.2793 204.034 54.3637 203.865 54.617 203.612C54.8703 203.358 55.3768 203.189 55.9678 203.105C56.5588 203.105 57.4031 203.274 57.994 203.949C58.2473 204.287 58.5006 204.625 58.7539 204.962C59.0072 205.3 59.3449 205.553 59.6826 205.638C60.4424 205.722 61.2023 205.047 61.9621 204.794C62.8063 204.54 63.5662 204.709 64.1572 204.962C65.3391 205.553 65.5924 206.398 65.5924 206.398Z" fill="#FAFAFA"/>
<path d="M82.1402 211.294C82.1402 211.379 81.5492 210.788 80.3672 210.703C79.7762 210.703 79.1008 210.788 78.5098 211.21C78.2566 211.463 77.9189 211.717 77.6656 212.054C77.3279 212.392 76.9902 212.73 76.3992 212.814C75.8082 212.899 75.3861 212.645 75.0484 212.392C74.7107 212.139 74.373 211.885 74.0353 211.632C73.4443 211.21 72.6844 211.21 72.1779 211.379C71.0803 211.717 70.7426 212.476 70.6582 212.476C70.6582 212.476 70.6582 212.308 70.9115 211.97C71.0803 211.717 71.5025 211.294 72.0935 211.126C72.6844 210.872 73.5287 210.872 74.2885 211.379C74.6262 211.632 74.9639 211.885 75.3016 212.139C75.6394 212.392 75.9771 212.561 76.3992 212.476C77.159 212.392 77.6656 211.463 78.341 211.041C79.0164 210.535 79.8607 210.45 80.4516 210.535C81.718 210.619 82.2246 211.294 82.1402 211.294Z" fill="#FAFAFA"/>
<path d="M27.5166 141.474C28.0232 142.065 46.597 166.886 46.597 166.886L43.9797 168.406L24.8994 143.922L27.5166 141.474Z" fill="#263238"/>
<path d="M99.9547 159.203C99.9547 159.203 82.5629 189.259 81.3809 189.766C79.1014 190.863 52.3383 167.73 49.8055 165.535C49.4678 165.029 48.7079 164.1 47.2727 162.074C47.2727 162.074 45.162 152.449 42.8825 153.209C40.603 153.969 44.1489 158.106 42.6292 161.736C41.194 165.367 34.4399 156.671 34.1866 155.911L32.4981 153.631C32.4981 153.631 30.7251 158.781 30.8096 160.892C31.2317 167.815 37.7325 175.92 37.7325 175.92C37.7325 175.92 64.1579 209.099 84.2514 210.197C89.9924 210.535 101.052 193.903 107.891 181.661C112.028 174.231 110.086 166.717 103.247 161.736L99.9547 159.203Z" fill="#FFBE9D"/>
<path d="M34.1011 162.158C34.0167 162.158 33.3413 161.145 32.5814 159.71C31.906 158.275 31.4839 157.093 31.5683 157.093C31.6527 157.093 32.1593 158.275 32.8347 159.626C33.5946 161.061 34.1855 162.158 34.1011 162.158Z" fill="#EB996E"/>
<path d="M99.1099 150.845C98.4344 151.267 82.2246 181.323 82.2246 181.323L103.078 197.617C103.078 197.617 108.481 184.278 111.352 173.387C112.112 170.432 111.689 162.58 110.592 159.541C109.072 155.235 106.708 156.333 103.162 153.8L99.1099 150.845Z" fill="#E8505B"/>
<path opacity="0.7" d="M105.948 150.845C105.948 150.845 105.779 150.761 105.357 150.508C104.935 150.339 104.344 150.085 103.5 150.085C102.656 150.085 101.727 150.508 100.798 151.183C99.8695 151.858 98.9408 152.871 98.0966 154.138C97.2523 155.32 96.4925 156.84 95.5638 158.359C94.7195 159.879 93.7908 161.567 92.7777 163.256C90.8359 166.717 88.6408 170.517 86.3613 174.485C85.0105 176.933 83.6597 179.212 82.3933 181.408L82.3088 181.154C87.9654 185.629 92.8621 189.512 96.408 192.299C98.0966 193.649 99.5318 194.747 100.46 195.591C100.883 195.929 101.305 196.267 101.558 196.52C101.811 196.689 101.896 196.858 101.896 196.858C101.896 196.858 101.727 196.773 101.474 196.604C101.22 196.351 100.798 196.098 100.376 195.76C99.363 195 97.9277 193.903 96.2392 192.552C92.6933 189.766 87.7121 185.967 82.0556 181.492L81.8867 181.408L81.9711 181.239C83.2375 179.044 84.5884 176.68 85.9392 174.316C88.2187 170.348 90.4138 166.549 92.3556 163.171C93.3687 161.483 94.2974 159.794 95.1416 158.275C96.0703 156.755 96.8302 155.32 97.6744 154.053C98.6031 152.871 99.5318 151.858 100.46 151.099C101.474 150.423 102.487 150.001 103.331 150.001C104.175 150.001 104.851 150.254 105.188 150.508C105.357 150.592 105.526 150.761 105.61 150.761C105.948 150.761 105.948 150.845 105.948 150.845Z" fill="black"/>
<path d="M99.7858 179.044C99.7013 179.128 99.3636 178.368 98.2661 177.946C97.7595 177.777 96.9997 177.693 96.3243 177.862C95.9866 177.946 95.6489 178.199 95.2268 178.368C94.8046 178.537 94.3825 178.79 93.7915 178.706C93.285 178.621 92.8628 178.199 92.6095 177.862C92.3563 177.524 92.103 177.102 91.9341 176.849C91.512 176.258 90.8366 176.004 90.2456 176.004C89.0636 176.004 88.5571 176.595 88.4727 176.595C88.4727 176.595 88.5571 176.426 88.8104 176.173C89.0636 176.004 89.5702 175.751 90.2456 175.751C90.8366 175.751 91.6809 176.004 92.2718 176.68C92.5251 177.017 92.7784 177.355 93.0317 177.693C93.285 178.03 93.5382 178.284 93.9604 178.368C94.7202 178.537 95.48 177.777 96.2399 177.608C97.0841 177.355 97.844 177.524 98.435 177.777C99.5325 178.199 99.7858 179.044 99.7858 179.044Z" fill="#FAFAFA"/>
<path d="M109.325 175.16C109.241 175.16 109.072 174.4 108.143 173.725C107.721 173.387 107.046 173.134 106.286 173.134C105.948 173.134 105.526 173.303 105.104 173.387C104.682 173.471 104.175 173.556 103.669 173.303C103.162 173.049 102.909 172.543 102.74 172.121C102.571 171.698 102.487 171.276 102.318 170.939C102.065 170.263 101.474 169.841 100.883 169.672C99.7852 169.335 99.0254 169.841 99.0254 169.757C99.0254 169.757 99.1098 169.588 99.4475 169.503C99.7852 169.335 100.292 169.25 100.883 169.419C101.474 169.588 102.234 170.01 102.571 170.854C102.74 171.276 102.825 171.614 102.993 172.036C103.162 172.458 103.331 172.796 103.669 172.965C104.344 173.303 105.273 172.796 106.117 172.796C106.961 172.796 107.721 173.134 108.143 173.556C109.325 174.316 109.325 175.16 109.325 175.16Z" fill="#FAFAFA"/>
<path d="M109.747 162.749C109.663 162.749 109.494 161.989 108.565 161.314C108.143 160.976 107.468 160.723 106.708 160.723C106.37 160.723 105.948 160.892 105.526 160.976C105.104 161.061 104.597 161.145 104.091 160.892C103.584 160.639 103.331 160.132 103.162 159.71C102.993 159.288 102.909 158.866 102.74 158.528C102.487 157.853 101.896 157.43 101.305 157.262C100.207 156.924 99.4473 157.43 99.4473 157.346C99.4473 157.346 99.5317 157.177 99.8694 157.093C100.207 156.924 100.714 156.839 101.305 157.008C101.896 157.177 102.655 157.599 102.993 158.444C103.162 158.866 103.246 159.203 103.415 159.626C103.584 160.048 103.753 160.385 104.091 160.554C104.766 160.892 105.695 160.385 106.539 160.385C107.383 160.385 108.143 160.723 108.565 161.145C109.747 161.821 109.832 162.749 109.747 162.749Z" fill="#FAFAFA"/>
<path d="M105.189 191.285C105.104 191.285 104.935 190.526 104.007 189.85C103.585 189.512 102.909 189.259 102.149 189.259C101.812 189.259 101.389 189.428 100.967 189.512C100.545 189.597 100.039 189.681 99.5321 189.428C99.0256 189.175 98.7723 188.668 98.6034 188.246C98.4346 187.824 98.3501 187.402 98.1813 187.064C97.928 186.389 97.337 185.967 96.746 185.798C95.6485 185.46 94.8887 185.967 94.8887 185.882C94.8887 185.882 94.9731 185.713 95.3108 185.629C95.6485 185.46 96.1551 185.376 96.746 185.544C97.337 185.713 98.0969 186.135 98.4346 186.98C98.6034 187.402 98.6879 187.74 98.8567 188.162C99.0256 188.584 99.1944 188.921 99.5321 189.09C100.208 189.428 101.136 188.921 101.98 188.921C102.825 188.921 103.585 189.259 104.007 189.681C105.189 190.441 105.189 191.285 105.189 191.285Z" fill="#FAFAFA"/>
<path d="M330.5 245.3C330.5 245.4 256.634 245.6 165.537 245.6C74.3661 245.6 0.5 245.5 0.5 245.3C0.5 245.2 74.3661 245 165.463 245C256.634 245.1 330.5 245.2 330.5 245.3Z" fill="#263238"/>
</svg>
