<svg width="34" height="34" viewBox="0 0 34 34" fill="none" xmlns="http://www.w3.org/2000/svg">
<path d="M32.1279 5.77745L30.5604 5.35905C30.3548 5.30671 30.1943 5.14621 30.142 4.94066C30.089 4.73826 30.1473 4.52295 30.2952 4.37495L31.4561 3.21405C31.754 2.91615 31.8703 2.48195 31.7613 2.07501C31.6522 1.66807 31.3344 1.35021 30.9274 1.24117C30.5205 1.13213 30.0863 1.24847 29.7884 1.54637L28.6275 2.70727C28.4795 2.85514 28.2642 2.91346 28.0618 2.86048C27.8562 2.80814 27.6957 2.64764 27.6434 2.44209L27.225 0.874589C27.0558 0.244837 26.4081 -0.128486 25.7783 0.0407498C25.1486 0.209986 24.7752 0.857694 24.9445 1.48745L25.3687 3.05495C25.4217 3.25735 25.3634 3.47266 25.2155 3.62066C25.065 3.76828 24.8481 3.82639 24.6439 3.77388L23.0764 3.35548C22.7761 3.27251 22.455 3.31504 22.1866 3.47334C21.9146 3.62806 21.7153 3.88459 21.6327 4.18638C21.5553 4.48899 21.5975 4.8098 21.7505 5.08209C21.9082 5.35272 22.1667 5.54979 22.4695 5.63013L24.037 6.04852C24.2378 6.1068 24.394 6.26523 24.4495 6.46691C24.5079 6.67112 24.4489 6.89089 24.2963 7.03852L19.6055 11.7351C19.3975 11.9429 19.0681 11.9656 18.8336 11.7882C16.8043 10.2547 14.3292 9.42692 11.7857 9.43102C5.27664 9.43102 0 14.7077 0 21.2167C0 27.7258 5.27664 33.0024 11.7857 33.0024C18.2948 33.0024 23.5714 27.7258 23.5714 21.2167C23.5755 18.6732 22.7477 16.1982 21.2143 14.1689C21.0369 13.9344 21.0595 13.605 21.2673 13.3969L25.9639 8.7062C26.1119 8.55408 26.3313 8.49527 26.5355 8.55298C26.7372 8.60841 26.8956 8.7646 26.9539 8.96548L27.3723 10.533C27.4527 10.8357 27.6497 11.0942 27.9204 11.2519C28.1926 11.405 28.5135 11.4472 28.8161 11.3698C29.4429 11.1988 29.8141 10.5539 29.647 9.92602L29.2286 8.35852C29.1761 8.1543 29.2342 7.93749 29.3818 7.78691C29.5298 7.63904 29.7451 7.58072 29.9475 7.6337L31.515 8.05798C32.1448 8.22722 32.7925 7.8539 32.9617 7.22414C33.1309 6.59439 32.7576 5.94668 32.1279 5.77745ZM21.2143 21.2167C21.2143 26.424 16.993 30.6453 11.7857 30.6453C6.57846 30.6453 2.35714 26.424 2.35714 21.2167C2.35714 16.0095 6.57846 11.7882 11.7857 11.7882C16.9901 11.795 21.2075 16.0123 21.2143 21.2167Z" fill="#413D45"/>
</svg>
