<svg width="102" height="60" viewBox="0 0 102 60" fill="none" xmlns="http://www.w3.org/2000/svg">
<path d="M57.6958 0H11.1597C5.02188 0 0 5.02188 0 11.1597V48.7681C0 54.9059 5.02188 59.9278 11.1597 59.9278H57.6958C63.8337 59.9278 68.8556 54.9059 68.8556 48.7681V11.1597C68.8556 4.91029 63.8337 0 57.6958 0Z" fill="#7398FF"/>
<path d="M93.7419 6.13782C93.0723 6.24942 92.4027 6.58421 91.8447 6.919L74.4355 16.9628V42.8534L91.9563 52.8971C95.1927 54.7943 99.2102 53.6783 101.107 50.442C101.665 49.4376 102 48.3216 102 47.0941V12.6105C102 8.48137 98.0942 5.13344 93.7419 6.13782Z" fill="#7398FF"/>
</svg>
