<svg width="61" height="61" viewBox="0 0 61 61" fill="none" xmlns="http://www.w3.org/2000/svg">
<rect x="0.875" y="0.353638" width="60" height="60" rx="6" fill="#F1F5FF"/>
<g clip-path="url(#clip0_2503_20)">
<path d="M18.5731 34.706C15.4731 34.9744 13.0464 37.4886 12.8881 40.5961C12.7297 43.7036 14.8883 46.4516 17.9449 47.0336C18.35 47.8401 19.1741 48.3504 20.0767 48.3536H34.4767C35.3792 48.3504 36.2033 47.8401 36.6085 47.0336C39.6668 46.4534 41.8275 43.7048 41.6691 40.5959C41.5106 37.4871 39.0817 34.9723 35.9803 34.706C34.4678 34.5059 32.9417 34.4268 31.4167 34.4696C31.2183 33.6063 31.0742 32.7314 30.9853 31.85C32.0765 30.7514 32.861 29.3861 33.2605 27.89C33.4631 27.9326 33.6696 27.9539 33.8767 27.9536V30.3536C33.8767 30.685 34.1453 30.9536 34.4767 30.9536C34.7467 30.9536 34.4923 31.0802 38.8687 27.9536H45.8767C47.5327 27.9517 48.8747 26.6097 48.8767 24.9536V15.3536C48.8747 13.6976 47.5327 12.3556 45.8767 12.3536H33.8767C33.1032 12.3547 32.3602 12.6559 31.8043 13.1936C30.3525 12.6631 28.8221 12.3792 27.2767 12.3536C27.0685 12.3536 22.1545 12.3836 20.1967 14.9936C18.9367 16.6772 19.3033 21.0278 19.4443 22.3136C18.8809 22.88 18.8767 23.93 18.8767 24.3134C18.8767 26.9438 20.4733 27.6734 21.2821 27.875C21.6752 29.3823 22.4621 30.7579 23.5621 31.8608C23.4774 32.7392 23.3371 33.6114 23.1421 34.472C21.6153 34.4318 20.0877 34.51 18.5731 34.706V34.706ZM32.0497 41.1536C32.2316 41.2712 32.3836 41.4296 32.4937 41.6162C31.2211 42.7884 30.0991 44.1142 29.1535 45.563C29.3885 42.2208 30.1078 38.9304 31.2889 35.795C32.2799 36.2067 33.107 36.9344 33.6415 37.865C32.6583 38.4224 31.9029 39.3082 31.5079 40.367C31.4406 40.5453 31.465 40.7452 31.573 40.902C31.6811 41.0589 31.8592 41.1529 32.0497 41.1536V41.1536ZM27.8887 47.1536H26.6647C26.5923 43.7521 26.0359 40.3783 25.0123 37.1336C26.469 37.6974 28.0837 37.6974 29.5405 37.1336C28.5174 40.3784 27.9612 43.7522 27.8887 47.1536ZM23.0455 40.364C22.6501 39.3047 21.894 38.4185 20.9101 37.8614C21.443 36.9289 22.2714 36.2005 23.2645 35.7914C24.4477 38.9266 25.1671 42.2177 25.3999 45.5606C24.4544 44.1111 23.3322 42.7849 22.0591 41.6126C22.1657 41.4329 22.3078 41.2767 22.4767 41.1536C22.6694 41.1535 22.8504 41.0607 22.963 40.9043C23.0757 40.7479 23.1064 40.5469 23.0455 40.364ZM18.8767 45.9536V42.3536C18.8767 42.0223 18.608 41.7536 18.2767 41.7536C17.9453 41.7536 17.6767 42.0223 17.6767 42.3536V45.7376C15.3605 45.0483 13.8614 42.8099 14.1057 40.4058C14.3501 38.0016 16.2688 36.1106 18.6763 35.9012L21.1717 35.684C20.4764 36.3103 19.9156 37.0713 19.5235 37.9208C19.4586 38.0749 19.4609 38.2491 19.5299 38.4014C19.599 38.5537 19.7284 38.6703 19.8871 38.723C20.6512 39.001 21.2874 39.5485 21.6763 40.2626C21.2839 40.6021 20.9652 41.0182 20.7397 41.4854C20.6101 41.7448 20.6846 42.0598 20.9167 42.2336C22.5313 43.4444 24.1789 45.8474 25.0069 47.1536H20.0767C19.4139 47.1536 18.8767 46.6164 18.8767 45.9536V45.9536ZM40.4767 40.9196C40.4714 43.1441 39.0084 45.1021 36.8767 45.7376V42.3536C36.8767 42.0223 36.608 41.7536 36.2767 41.7536C35.9453 41.7536 35.6767 42.0223 35.6767 42.3536V45.9536C35.6767 46.6164 35.1394 47.1536 34.4767 47.1536H29.5465C30.3745 45.8474 32.0221 43.4444 33.6367 42.2336C33.8698 42.0606 33.9456 41.7455 33.8167 41.4854C33.5906 41.0172 33.2708 40.6004 32.8771 40.2608C33.2653 39.5455 33.9033 38.9981 34.6693 38.723C34.8279 38.6703 34.9574 38.5537 35.0264 38.4014C35.0954 38.2491 35.0978 38.0749 35.0329 37.9208C34.641 37.0722 34.0811 36.3119 33.3871 35.6858L35.8789 35.9012C38.4857 36.119 40.4873 38.3038 40.4767 40.9196V40.9196ZM33.8767 13.5536H45.8767C46.8708 13.5536 47.6767 14.3595 47.6767 15.3536V24.9536C47.6767 25.9478 46.8708 26.7536 45.8767 26.7536C38.0395 26.7536 38.5501 26.7056 38.3281 26.8652L35.0767 29.1878V27.3536C35.0767 27.0223 34.808 26.7536 34.4767 26.7536H33.8767C32.8826 26.7536 32.0767 25.9478 32.0767 24.9536V15.3536C32.0767 14.3595 32.8826 13.5536 33.8767 13.5536ZM21.1567 15.7136C22.7539 13.5842 27.2323 13.5536 27.2767 13.5536C28.5782 13.5818 29.8683 13.8042 31.1041 14.2136C30.9626 14.5587 30.8873 14.9273 30.8821 15.3002C30.2198 15.0532 29.4971 15.0178 28.8139 15.1988C25.7473 15.7226 25.1479 14.546 23.4085 15.4154C22.0237 16.109 21.2767 18.065 21.2767 19.5536C21.2231 20.3996 21.0653 21.2357 20.8069 22.043C20.7449 22.0219 20.6818 22.004 20.6179 21.9896C20.4457 20.27 20.3029 16.8536 21.1567 15.7136V15.7136ZM20.0767 24.3116C20.0767 23.339 20.2927 23.1524 20.2909 23.1524C20.4359 23.1615 20.5747 23.2147 20.6887 23.3048C20.6969 24.3531 20.7821 25.3993 20.9437 26.435C20.4853 26.1176 20.0767 25.5008 20.0767 24.3116ZM22.9351 28.8962C22.0315 26.9972 21.8767 24.7736 21.8767 22.6484C22.2093 21.647 22.411 20.6068 22.4767 19.5536C22.4767 18.4286 23.0665 16.9292 23.9449 16.4906C25.1731 15.875 25.7719 16.9376 29.0149 16.3826C29.644 16.1728 30.3357 16.2772 30.8749 16.6634V24.9536C30.8765 25.9295 31.3533 26.8434 32.1529 27.4028C31.4569 29.8868 29.8939 32.1536 27.2767 32.1536C25.4119 32.1536 23.9515 31.0586 22.9351 28.8962ZM29.8723 32.6726C29.9719 33.4588 30.1171 34.2385 30.3073 35.0078C29.2729 36.8078 25.2853 36.8198 24.2515 35.0078C24.4384 34.2398 24.5812 33.4618 24.6793 32.6774C26.2926 33.5816 28.2606 33.5798 29.8723 32.6726Z" fill="#7398FF"/>
<path d="M36.2752 21.9536H38.0752V23.7536C38.0752 24.4164 38.6125 24.9536 39.2752 24.9536H40.4752C41.1379 24.9536 41.6752 24.4164 41.6752 23.7536V21.9536H43.4752C44.1379 21.9536 44.6752 21.4164 44.6752 20.7536V19.5536C44.6752 18.8909 44.1379 18.3536 43.4752 18.3536H41.6752V16.5536C41.6752 15.8909 41.1379 15.3536 40.4752 15.3536H39.2752C38.6125 15.3536 38.0752 15.8909 38.0752 16.5536V18.3536H36.2752C35.6125 18.3536 35.0752 18.8909 35.0752 19.5536V20.7536C35.0752 21.4164 35.6125 21.9536 36.2752 21.9536ZM36.2752 19.5536H38.0752C38.7379 19.5536 39.2752 19.0164 39.2752 18.3536V16.5536H40.4752V18.3536C40.4752 19.0164 41.0125 19.5536 41.6752 19.5536H43.4752V20.7536H41.6752C41.0125 20.7536 40.4752 21.2909 40.4752 21.9536V23.7536H39.2752V21.9536C39.2752 21.2909 38.7379 20.7536 38.0752 20.7536H36.2752V19.5536Z" fill="#FFC973"/>
</g>
<defs>
<clipPath id="clip0_2503_20">
<rect width="36" height="36" fill="white" transform="translate(12.875 12.3536)"/>
</clipPath>
</defs>
</svg>
