<svg width="22" height="22" viewBox="0 0 22 22" fill="none" xmlns="http://www.w3.org/2000/svg">
<path d="M8.83366 0.25H13.167C15.4655 0.25 17.6699 1.16309 19.2952 2.78841C20.9206 4.41372 21.8337 6.61812 21.8337 8.91667C21.8337 11.2152 20.9206 13.4196 19.2952 15.0449C17.6699 16.6702 15.4655 17.5833 13.167 17.5833V21.375C7.75033 19.2083 0.166992 15.9583 0.166992 8.91667C0.166992 6.61812 1.08008 4.41372 2.7054 2.78841C4.33072 1.16309 6.53512 0.25 8.83366 0.25ZM11.0003 15.4167H13.167C14.0206 15.4167 14.8658 15.2485 15.6544 14.9219C16.4431 14.5952 17.1596 14.1164 17.7632 13.5129C18.3668 12.9093 18.8456 12.1927 19.1722 11.4041C19.4989 10.6155 19.667 9.77026 19.667 8.91667C19.667 8.06307 19.4989 7.21784 19.1722 6.42922C18.8456 5.64061 18.3668 4.92405 17.7632 4.32047C17.1596 3.71689 16.4431 3.23811 15.6544 2.91145C14.8658 2.58479 14.0206 2.41667 13.167 2.41667H8.83366C7.10975 2.41667 5.45645 3.10149 4.23746 4.32047C3.01848 5.53946 2.33366 7.19276 2.33366 8.91667C2.33366 12.8275 5.00082 15.3798 11.0003 18.1033V15.4167Z" fill="#413D45"/>
</svg>
