<svg width="26" height="17" viewBox="0 0 26 17" fill="none" xmlns="http://www.w3.org/2000/svg">
<path d="M26 0H0V16.0588H26V0Z" fill="#D80027"/>
<path d="M13.4386 6.19684C13.2417 7.02808 12.8917 6.86959 12.72 7.59453C11.7084 7.34776 11.0853 6.31546 11.3285 5.28882C11.5716 4.26234 12.5891 3.6301 13.6007 3.87687C13.2572 5.3268 13.6148 5.45335 13.4386 6.19684Z" fill="#F0F0F0"/>
<path d="M10.8144 6.81291C11.5327 7.25986 11.2759 7.54862 11.9023 7.93837C11.3583 8.8384 10.1983 9.12062 9.31128 8.56866C8.42428 8.01675 8.1461 6.8396 8.69007 5.93958C9.94289 6.71913 10.1719 6.41316 10.8144 6.81291Z" fill="#F0F0F0"/>
<path d="M10.5799 9.53659C11.2208 8.98153 11.4121 9.31852 11.971 8.83447C12.6465 9.63753 12.5525 10.8442 11.7611 11.5297C10.9697 12.2151 9.78047 12.1197 9.10498 11.3167C10.2227 10.3487 10.0067 10.0331 10.5799 9.53659Z" fill="#F0F0F0"/>
<path d="M13.061 10.604C12.7387 9.814 13.1136 9.73346 12.8328 9.04459C13.7942 8.64087 14.8962 9.10441 15.2942 10.08C15.6921 11.0556 15.2352 12.1738 14.2737 12.5775C13.7117 11.1997 13.3492 11.3106 13.061 10.604Z" fill="#F0F0F0"/>
<path d="M14.8285 8.53988C13.9885 8.60676 14.0289 8.21994 13.2964 8.27827C13.215 7.22572 13.9901 6.30549 15.0274 6.22285C16.0647 6.14045 16.9716 6.92686 17.053 7.97941C15.5879 8.09597 15.5797 8.48015 14.8285 8.53988Z" fill="#F0F0F0"/>
</svg>
