<svg width="24" height="22" viewBox="0 0 24 22" fill="none" xmlns="http://www.w3.org/2000/svg">
<path d="M11.9995 8.8359C14.2482 8.8359 16.0776 7.00647 16.0776 4.7578C16.0776 2.50912 14.2482 0.679688 11.9995 0.679688C9.75082 0.679688 7.92139 2.50912 7.92139 4.7578C7.92139 7.00647 9.75082 8.8359 11.9995 8.8359ZM11.9995 2.08593C13.4728 2.08593 14.6714 3.28452 14.6714 4.7578C14.6714 6.23107 13.4728 7.42966 11.9995 7.42966C10.5262 7.42966 9.32763 6.23107 9.32763 4.7578C9.32763 3.28452 10.5262 2.08593 11.9995 2.08593Z" fill="#413D45"/>
<path d="M20.25 8.8359C21.6716 8.8359 22.8281 7.67936 22.8281 6.2578C22.8281 4.83623 21.6716 3.67969 20.25 3.67969C18.8284 3.67969 17.6719 4.83623 17.6719 6.2578C17.6719 7.67936 18.8284 8.8359 20.25 8.8359ZM20.25 5.08593C20.8962 5.08593 21.4219 5.61163 21.4219 6.2578C21.4219 6.90396 20.8962 7.42966 20.25 7.42966C19.6038 7.42966 19.0781 6.90396 19.0781 6.2578C19.0781 5.61163 19.6038 5.08593 20.25 5.08593Z" fill="#413D45"/>
<path d="M20.8171 10.4297H19.7297C18.4481 10.4297 17.3419 11.1868 16.8378 12.2743C15.7999 11.1413 14.3092 10.4297 12.6552 10.4297H11.3448C9.69083 10.4297 8.20006 11.1413 7.16221 12.2743C6.65807 11.1868 5.55182 10.4297 4.2703 10.4297H3.18281C1.42781 10.4297 0 11.8489 0 13.5933V18.7125C0 19.4698 0.618468 20.0859 1.37868 20.0859H5.67838C5.75047 20.925 6.45603 21.5859 7.31352 21.5859H16.6865C17.5439 21.5859 18.2495 20.925 18.3216 20.0859H22.5722C23.3595 20.0859 24 19.4479 24 18.6637V13.5933C24 11.8489 22.5721 10.4297 20.8171 10.4297ZM1.40625 13.5933C1.40625 12.6243 2.20321 11.8359 3.18281 11.8359H4.2703C5.2499 11.8359 6.04686 12.6243 6.04686 13.5933V14.0747C5.57404 15.3058 5.67186 16.0437 5.67186 18.6797H1.40625V13.5933ZM16.9218 19.9443C16.9218 20.0741 16.8163 20.1797 16.6865 20.1797H7.31347C7.18367 20.1797 7.07811 20.074 7.07811 19.9443V16.1026C7.07811 13.7499 8.99211 11.8359 11.3447 11.8359H12.6552C15.0078 11.8359 16.9218 13.7499 16.9218 16.1025V19.9443ZM22.5937 18.6637C22.5937 18.688 22.8558 18.6797 18.3281 18.6797C18.3281 16.0242 18.4252 15.3038 17.9531 14.0747V13.5933C17.9531 12.6243 18.7501 11.8359 19.7297 11.8359H20.8171C21.7967 11.8359 22.5937 12.6243 22.5937 13.5933V18.6637Z" fill="#413D45"/>
<path d="M3.75048 8.8359C5.17206 8.8359 6.3286 7.67936 6.3286 6.2578C6.3286 4.83623 5.17206 3.67969 3.75048 3.67969C2.32891 3.67969 1.17236 4.83623 1.17236 6.2578C1.17236 7.67936 2.32891 8.8359 3.75048 8.8359ZM3.75048 5.08593C4.39665 5.08593 4.92236 5.61163 4.92236 6.2578C4.92236 6.90396 4.39665 7.42966 3.75048 7.42966C3.10431 7.42966 2.57861 6.90396 2.57861 6.2578C2.57861 5.61163 3.10431 5.08593 3.75048 5.08593Z" fill="#413D45"/>
</svg>
