<svg width="19" height="19" viewBox="0 0 19 19" fill="none" xmlns="http://www.w3.org/2000/svg">
<path d="M18.1185 8.66537C17.6836 8.66537 17.3307 9.01828 17.3307 9.45312C17.3307 13.7968 13.7968 17.3307 9.45312 17.3307C5.10941 17.3307 1.57552 13.7968 1.57552 9.45312C1.57552 5.10941 5.10941 1.57552 9.45312 1.57552C11.5679 1.57552 13.553 2.40188 15.0431 3.90257C15.3495 4.21097 15.8486 4.21294 16.157 3.9065C16.4658 3.60007 16.4673 3.10102 16.1609 2.79222C14.3731 0.99179 11.9905 0 9.45312 0C4.24051 0 0 4.24051 0 9.45312C0 14.6657 4.24051 18.9062 9.45312 18.9062C14.6653 18.9062 18.9062 14.6657 18.9062 9.45312C18.9062 9.01828 18.5533 8.66537 18.1185 8.66537Z" fill="#7398FF"/>
<path d="M11.0606 10.0001L12.7805 8.28023C13.0734 7.98733 13.0734 7.51256 12.7805 7.21967C12.4876 6.92678 12.0128 6.92678 11.7199 7.21967L10.0001 8.93951L8.28022 7.21967C7.98771 6.92678 7.51218 6.92678 7.21967 7.21967C6.92678 7.51256 6.92678 7.98733 7.21967 8.28023L8.93951 10.0001L7.21967 11.7199C6.92678 12.0128 6.92678 12.4876 7.21967 12.7805C7.36593 12.9271 7.55794 13.0002 7.74995 13.0002C7.94196 13.0002 8.13397 12.9271 8.28022 12.7805L10.0001 11.0606L11.7199 12.7805C11.8665 12.9271 12.0582 13.0002 12.2502 13.0002C12.4422 13.0002 12.6338 12.9271 12.7805 12.7805C13.0734 12.4876 13.0734 12.0128 12.7805 11.7199L11.0606 10.0001Z" fill="#7398FF"/>
</svg>
