<svg width="24" height="24" viewBox="0 0 24 24" fill="none" xmlns="http://www.w3.org/2000/svg">
<path d="M10.0015 1.44873H14.0126V2.12366H15.4611V1.35425C15.4613 0.607544 14.8541 0 14.1078 0H9.90625C9.15991 0 8.55273 0.607544 8.55273 1.35425V2.12366H10.0015V1.44873Z" fill="#7398FF"/>
<path d="M18.8063 7.86328H5.20738C4.83476 7.86328 4.54142 8.18115 4.57145 8.55267L5.70835 22.6108C5.77171 23.3956 6.42631 24 7.21275 24H16.8007C17.5871 24 18.2417 23.3956 18.3051 22.6106L19.442 8.55267C19.4722 8.18115 19.1789 7.86328 18.8063 7.86328ZM8.50016 22.5005C8.48497 22.5015 8.46977 22.502 8.45475 22.502C8.07499 22.502 7.75621 22.2063 7.73258 21.8221L7.02012 10.2812C6.99559 9.88184 7.29936 9.53815 7.69853 9.51361C8.09642 9.48944 8.44157 9.79248 8.4661 10.192L9.17839 21.733C9.2031 22.1323 8.89933 22.4758 8.50016 22.5005ZM12.7392 21.7776C12.7392 22.1776 12.415 22.5018 12.0149 22.5018C11.6148 22.5018 11.2905 22.1776 11.2905 21.7776V10.2365C11.2905 9.83643 11.6148 9.51215 12.0149 9.51215C12.4148 9.51215 12.7392 9.83643 12.7392 10.2365V21.7776ZM16.9935 10.2792L16.3133 21.8201C16.2907 22.205 15.9714 22.5018 15.5909 22.5018C15.5766 22.5018 15.5622 22.5015 15.5477 22.5007C15.1484 22.4771 14.8437 22.1343 14.8673 21.735L15.5473 10.1938C15.5708 9.79449 15.9125 9.48981 16.3129 9.51343C16.7123 9.53687 17.0169 9.87982 16.9935 10.2792Z" fill="#7398FF"/>
<path d="M21.3116 5.62793L20.8359 4.2019C20.7105 3.82599 20.3586 3.57239 19.9621 3.57239H4.05228C3.65604 3.57239 3.30393 3.82599 3.17869 4.2019L2.70298 5.62793C2.61124 5.90295 2.73063 6.18347 2.95347 6.32336C3.04429 6.38031 3.15177 6.41455 3.26987 6.41455H20.7447C20.8628 6.41455 20.9705 6.38031 21.0611 6.32318C21.284 6.18329 21.4034 5.90277 21.3116 5.62793Z" fill="#7398FF"/>
</svg>
