<svg width="15" height="15" viewBox="0 0 15 15" fill="none" xmlns="http://www.w3.org/2000/svg">
<path d="M7.5 0C3.3645 0 0 3.36455 0 7.50005C0 11.6355 3.3645 15 7.5 15C11.6355 15 15 11.6355 15 7.50005C15 3.36455 11.6355 0 7.5 0ZM7.5 13.6364C4.11636 13.6364 1.36364 10.8836 1.36364 7.50005C1.36364 4.11646 4.11636 1.36364 7.5 1.36364C10.8836 1.36364 13.6364 4.11646 13.6364 7.50005C13.6364 10.8836 10.8836 13.6364 7.5 13.6364Z" fill="#413D45"/>
<path d="M7.49997 3.18176C6.99879 3.18176 6.59106 3.58976 6.59106 4.09126C6.59106 4.59231 6.99879 4.99994 7.49997 4.99994C8.00116 4.99994 8.40888 4.59231 8.40888 4.09126C8.40888 3.58976 8.00116 3.18176 7.49997 3.18176Z" fill="#413D45"/>
<path d="M7.49993 6.36365C7.12339 6.36365 6.81812 6.66892 6.81812 7.04547V11.1364C6.81812 11.5129 7.12339 11.8182 7.49993 11.8182C7.87648 11.8182 8.18175 11.5129 8.18175 11.1364V7.04547C8.18175 6.66892 7.87648 6.36365 7.49993 6.36365Z" fill="#413D45"/>
</svg>
