<svg width="17" height="18" viewBox="0 0 17 18" fill="none" xmlns="http://www.w3.org/2000/svg">
<path d="M1.69468 12.8597C1.62564 12.938 1.57919 13.0376 1.55949 13.1451L0.861658 17.1044C0.829125 17.2879 0.880455 17.4772 0.99685 17.6104C1.09065 17.7168 1.21699 17.7738 1.3464 17.7738C1.37785 17.7738 1.41056 17.7705 1.44309 17.7628L4.93243 16.9712C5.02913 16.9486 5.11697 16.8961 5.18511 16.8176L11.4689 9.68963C12.3409 8.70041 12.3409 7.21693 11.4688 6.22773C10.4268 5.04573 8.58416 5.04569 7.54204 6.22765L1.69468 12.8597Z" fill="#413D45"/>
<path d="M15.4071 1.26314C14.4449 0.171402 12.8793 0.171402 11.9178 1.26314C11.1371 2.14868 11.1371 3.47669 11.9178 4.36223L12.675 5.22115C13.4 6.04361 14.6821 6.04357 15.4071 5.22106C15.8731 4.69375 16.1297 3.99053 16.1297 3.24261C16.1297 2.4947 15.8731 1.79148 15.4071 1.26314Z" fill="#413D45"/>
</svg>
