<svg width="27" height="18" viewBox="0 0 27 18" fill="none" xmlns="http://www.w3.org/2000/svg">
<path d="M1.3848 0H25.6154C26.3769 0 27 0.623053 27 1.38459V16.6153C27 17.3768 26.3769 17.9999 25.6154 17.9999H1.38475C0.623268 17.9999 0.000110626 17.3769 0.000110626 16.6153V1.38459C0.000164032 0.623053 0.623215 0 1.3848 0ZM1.90439 1.03839L12.7036 9.13844C12.8978 9.2862 13.1958 9.37865 13.5001 9.37728C13.8044 9.37865 14.1024 9.2862 14.2966 9.13844L25.0958 1.03839H1.90439ZM7.67297 9.6729L1.78837 16.9421C1.78247 16.9494 1.77524 16.955 1.76897 16.9615H25.2312C25.225 16.9546 25.2177 16.9494 25.2118 16.9421L19.3272 9.6729C19.1469 9.45 19.1811 9.1232 19.4044 8.94248C19.6273 8.76219 19.9541 8.79636 20.1344 9.01932L25.9616 16.2176V1.68744L14.9194 9.96911C14.5043 10.2782 13.9993 10.4143 13.5002 10.4157C13.0017 10.4146 12.4963 10.2786 12.081 9.96911L1.03881 1.68744V16.2175L6.86577 9.01932C7.04612 8.79641 7.37323 8.76213 7.59582 8.94248C7.81909 9.12278 7.85337 9.45 7.67297 9.6729Z" fill="#7398FF"/>
</svg>
