<svg width="145" height="194" viewBox="0 0 145 194" fill="none" xmlns="http://www.w3.org/2000/svg">
<path d="M126.875 193.333H18.125C8.13611 193.333 0 185.205 0 175.208V90.625C0 80.6281 8.13611 72.5 18.125 72.5H126.875C136.864 72.5 145 80.6281 145 90.625V175.208C145 185.205 136.864 193.333 126.875 193.333ZM18.125 84.5833C14.7981 84.5833 12.0833 87.29 12.0833 90.625V175.208C12.0833 178.543 14.7981 181.25 18.125 181.25H126.875C130.202 181.25 132.917 178.543 132.917 175.208V90.625C132.917 87.29 130.202 84.5833 126.875 84.5833H18.125Z" fill="#577869"/>
<path d="M114.79 84.5833C111.455 84.5833 108.748 81.8767 108.748 78.5417V48.3333C108.748 28.3475 92.4842 12.0833 72.4984 12.0833C52.5125 12.0833 36.2484 28.3475 36.2484 48.3333V78.5417C36.2484 81.8767 33.5417 84.5833 30.2067 84.5833C26.8717 84.5833 24.165 81.8767 24.165 78.5417V48.3333C24.165 21.6775 45.8425 0 72.4984 0C99.1542 0 120.832 21.6775 120.832 48.3333V78.5417C120.832 81.8767 118.125 84.5833 114.79 84.5833Z" fill="#577869"/>
<path d="M72.4978 136.944C63.6125 136.944 56.3867 129.718 56.3867 120.833C56.3867 111.948 63.6125 104.722 72.4978 104.722C81.3831 104.722 88.6089 111.948 88.6089 120.833C88.6089 129.718 81.3831 136.944 72.4978 136.944ZM72.4978 116.805C70.2825 116.805 68.47 118.61 68.47 120.833C68.47 123.056 70.2825 124.861 72.4978 124.861C74.7131 124.861 76.5256 123.056 76.5256 120.833C76.5256 118.61 74.7131 116.805 72.4978 116.805Z" fill="#577869"/>
<path d="M72.5016 161.111C69.1666 161.111 66.46 158.404 66.46 155.069V132.917C66.46 129.582 69.1666 126.875 72.5016 126.875C75.8366 126.875 78.5433 129.582 78.5433 132.917V155.069C78.5433 158.404 75.8366 161.111 72.5016 161.111Z" fill="#577869"/>
</svg>
