<svg width="26" height="16" viewBox="0 0 26 16" fill="none" xmlns="http://www.w3.org/2000/svg">
<path d="M26 4.92542H0V6.15677H26V4.92542Z" fill="#DB2E2E"/>
<path d="M26 2.46265H0V3.694H26V2.46265Z" fill="#DB2E2E"/>
<path d="M26 0H0V1.23135H26V0Z" fill="#DB2E2E"/>
<path d="M26 7.38806H0V8.61941H26V7.38806Z" fill="#DB2E2E"/>
<path d="M26 9.85083H0V11.0822H26V9.85083Z" fill="#DB2E2E"/>
<path d="M26 12.3135H0V13.5448H26V12.3135Z" fill="#DB2E2E"/>
<path d="M26 14.7687H0V16H26V14.7687Z" fill="#DB2E2E"/>
<path d="M26 3.69409H0V4.92544H26V3.69409Z" fill="white"/>
<path d="M26 1.23132H0V2.46267H26V1.23132Z" fill="white"/>
<path d="M26 6.15674H0V7.38809H26V6.15674Z" fill="white"/>
<path d="M26 8.61194H0V9.84329H26V8.61194Z" fill="white"/>
<path d="M26 11.0822H0V12.3135H26V11.0822Z" fill="white"/>
<path d="M26 13.5448H0V14.7761H26V13.5448Z" fill="white"/>
<path d="M9.71871 0.0377197H0V7.49381H9.71871V0.0377197Z" fill="#2E4593"/>
<path d="M8.12558 1.51843L8.23179 1.81305L7.98143 1.62419L7.73865 1.81305L7.83728 1.51843H7.84487H7.83728L7.58691 1.34468H7.89039L7.97384 1.05762L8.06488 1.34468H8.07247H8.37594L8.12558 1.51843Z" fill="white"/>
<path d="M8.12558 3.02928L8.23179 3.31634L7.98143 3.13504L7.73865 3.31634L7.83728 3.02928L7.84487 3.02172H7.83728L7.58691 2.85553H7.89039L7.97384 2.56091L8.06488 2.85553H8.07247H8.37594L8.12558 3.02172V3.02928Z" fill="white"/>
<path d="M8.12558 4.53259L8.23179 4.81965L7.98143 4.63835L7.73865 4.81965L7.83728 4.53259H7.84487H7.83728L7.58691 4.35884H7.89039L7.97384 4.07178L8.06488 4.35884H8.07247H8.37594L8.12558 4.53259Z" fill="white"/>
<path d="M8.12558 6.03588L8.23179 6.32295L7.98143 6.14165L7.73865 6.32295L7.83728 6.03588H7.84487H7.83728L7.58691 5.86214H7.89039L7.97384 5.57507L8.06488 5.86214V5.86969L8.07247 5.86214H8.37594L8.12558 6.03588Z" fill="white"/>
<path d="M6.51718 1.51843L6.62339 1.81305L6.37303 1.62419L6.12266 1.81305L6.22888 1.51843L5.97852 1.34468H6.28199L6.36544 1.05762L6.46407 1.34468H6.76754L6.51718 1.51843Z" fill="white"/>
<path d="M6.51718 3.02928L6.62339 3.31634L6.37303 3.13504L6.12266 3.31634L6.22888 3.02928V3.02172L5.97852 2.85553H6.28199L6.36544 2.56091L6.46407 2.85553H6.76754L6.51718 3.02172V3.02928Z" fill="white"/>
<path d="M6.51718 4.53259L6.62339 4.81965L6.37303 4.63835L6.12266 4.81965L6.22888 4.53259L5.97852 4.35884H6.28199L6.36544 4.07178L6.46407 4.35884H6.76754L6.51718 4.53259Z" fill="white"/>
<path d="M6.51718 6.03588L6.62339 6.32295L6.37303 6.14165L6.12266 6.32295L6.22888 6.03588L5.97852 5.86214H6.28199L6.36544 5.57507L6.46407 5.86214V5.86969V5.86214H6.76754L6.51718 6.03588Z" fill="white"/>
<path d="M4.90878 1.51843L5.015 1.81305L4.76463 1.62419L4.52185 1.81305L4.62048 1.51843H4.62807H4.62048L4.37012 1.34468H4.67359L4.75704 1.05762L4.84809 1.34468H4.85567H5.15915L4.90878 1.51843Z" fill="white"/>
<path d="M4.90878 3.02928L5.015 3.31634L4.76463 3.13504L4.52185 3.31634L4.62048 3.02928L4.62807 3.02172H4.62048L4.37012 2.85553H4.67359L4.75704 2.56091L4.84809 2.85553H4.85567H5.15915L4.90878 3.02172V3.02928Z" fill="white"/>
<path d="M4.90878 4.53259L5.015 4.81965L4.76463 4.63835L4.52185 4.81965L4.62048 4.53259H4.62807H4.62048L4.37012 4.35884H4.67359L4.75704 4.07178L4.84809 4.35884H4.85567H5.15915L4.90878 4.53259Z" fill="white"/>
<path d="M4.90878 6.03588L5.015 6.32295L4.76463 6.14165L4.52185 6.32295L4.62048 6.03588H4.62807H4.62048L4.37012 5.86214H4.67359L4.75704 5.57507L4.84809 5.86214V5.86969L4.85567 5.86214H5.15915L4.90878 6.03588Z" fill="white"/>
<path d="M3.33067 1.51843L3.4293 1.81305L3.18652 1.62419L2.93616 1.81305L3.04238 1.51843L2.78442 1.34468H3.09548L3.17894 1.05762L3.26998 1.34468H3.58104L3.32309 1.51843H3.33067Z" fill="white"/>
<path d="M3.33067 3.02928L3.4293 3.31634L3.18652 3.13504L2.93616 3.31634L3.04238 3.02928V3.02172L2.78442 2.85553H3.09548L3.17894 2.56091L3.26998 2.85553H3.58104L3.32309 3.02172L3.33067 3.02928Z" fill="white"/>
<path d="M3.33067 4.53259L3.4293 4.81965L3.18652 4.63835L2.93616 4.81965L3.04238 4.53259L2.78442 4.35884H3.09548L3.17894 4.07178L3.26998 4.35884H3.58104L3.32309 4.53259H3.33067Z" fill="white"/>
<path d="M3.33067 6.03588L3.4293 6.32295L3.18652 6.14165L2.93616 6.32295L3.04238 6.03588L2.78442 5.86214H3.09548L3.17894 5.57507L3.26998 5.86214V5.86969V5.86214H3.58104L3.32309 6.03588H3.33067Z" fill="white"/>
<path d="M1.74496 1.51843L1.84359 1.81305L1.60081 1.62419L1.35803 1.81305L1.45666 1.51843H1.46425H1.45666L1.2063 1.34468H1.50977L1.59323 1.05762L1.69185 1.34468H1.99533L1.74496 1.51843H1.73738H1.74496Z" fill="white"/>
<path d="M1.74496 3.02928L1.84359 3.31634L1.60081 3.13504L1.35803 3.31634L1.45666 3.02928L1.46425 3.02172H1.45666L1.2063 2.85553H1.50977L1.59323 2.56091L1.69185 2.85553H1.99533L1.74496 3.02172H1.73738L1.74496 3.02928Z" fill="white"/>
<path d="M1.74496 4.53259L1.84359 4.81965L1.60081 4.63835L1.35803 4.81965L1.45666 4.53259H1.46425H1.45666L1.2063 4.35884H1.50977L1.59323 4.07178L1.69185 4.35884H1.99533L1.74496 4.53259H1.73738H1.74496Z" fill="white"/>
<path d="M1.74496 6.03588L1.84359 6.32295L1.60081 6.14165L1.35803 6.32295L1.45666 6.03588H1.46425H1.45666L1.2063 5.86214H1.50977L1.59323 5.57507L1.69185 5.86214V5.86969V5.86214H1.99533L1.74496 6.03588H1.73738H1.74496Z" fill="white"/>
<path d="M8.90683 2.2738L9.00546 2.56086L8.76268 2.37956L8.51231 2.56086L8.61853 2.2738V2.26625L8.36816 2.10005H8.67164L8.75509 1.81299L8.84613 2.10005H9.15719L8.89924 2.26625L8.90683 2.2738Z" fill="white"/>
<path d="M8.90683 3.7771L9.00546 4.06416L8.76268 3.88286L8.51231 4.06416L8.61853 3.7771L8.36816 3.60335H8.67164L8.75509 3.31628L8.84613 3.60335H9.15719L8.89924 3.7771H8.90683Z" fill="white"/>
<path d="M8.90683 5.28795L9.00546 5.57501L8.76268 5.39371L8.51231 5.57501L8.61853 5.28795V5.28039L8.36816 5.1142H8.67164L8.75509 4.81958L8.84613 5.1142H9.15719L8.89924 5.28039L8.90683 5.28795Z" fill="white"/>
<path d="M8.90683 6.79126L9.00546 7.08587L8.76268 6.89702L8.51231 7.08587L8.61853 6.79126L8.36816 6.62506H8.67164L8.75509 6.33044L8.84613 6.62506H9.15719L8.89924 6.79126H8.90683Z" fill="white"/>
<path d="M8.90683 0.770504L9.00546 1.05757L8.76268 0.883819V0.876265V0.883819L8.51231 1.05757L8.61853 0.770504L8.36816 0.60431H8.67164L8.75509 0.309692L8.84613 0.60431H9.15719L8.89924 0.770504H8.90683Z" fill="white"/>
<path d="M7.32895 2.2738L7.43516 2.56086L7.19238 2.37956L6.94202 2.56086L7.04823 2.2738V2.26625L6.79028 2.10005H7.10134L7.1848 1.81299L7.27584 2.10005H7.5869L7.32895 2.26625V2.2738Z" fill="white"/>
<path d="M7.32895 3.7771L7.43516 4.06416L7.19238 3.88286L6.94202 4.06416L7.04823 3.7771L6.79028 3.60335H7.10134L7.1848 3.31628L7.27584 3.60335H7.5869L7.32895 3.7771Z" fill="white"/>
<path d="M7.32895 5.28795L7.43516 5.57501L7.19238 5.39371L6.94202 5.57501L7.04823 5.28795V5.28039L6.79028 5.1142H7.10134L7.1848 4.81958L7.27584 5.1142H7.5869L7.32895 5.28039V5.28795Z" fill="white"/>
<path d="M7.32895 6.79126L7.43516 7.08587L7.19238 6.89702L6.94202 7.08587L7.04823 6.79126L6.79028 6.62506H7.10134L7.1848 6.33044L7.27584 6.62506H7.5869L7.32895 6.79126Z" fill="white"/>
<path d="M7.32895 0.770504L7.43516 1.05757L7.19238 0.883819V0.876265V0.883819L6.94202 1.05757L7.04823 0.770504L6.79028 0.60431H7.10134L7.1848 0.309692L7.27584 0.60431H7.5869L7.32895 0.770504Z" fill="white"/>
<path d="M5.6976 2.2738L5.79623 2.56086L5.55345 2.37956L5.31067 2.56086L5.4093 2.2738V2.26625L5.15894 2.10005H5.46241L5.54586 1.81299L5.6369 2.10005H5.64449H5.94796L5.6976 2.26625H5.69001L5.6976 2.2738Z" fill="white"/>
<path d="M5.6976 3.7771L5.79623 4.06416L5.55345 3.88286L5.31067 4.06416L5.4093 3.7771L5.15894 3.60335H5.46241L5.54586 3.31628L5.6369 3.60335H5.64449H5.94796L5.6976 3.7771H5.69001H5.6976Z" fill="white"/>
<path d="M5.6976 5.28795L5.79623 5.57501L5.55345 5.39371L5.31067 5.57501L5.4093 5.28795V5.28039L5.15894 5.1142H5.46241L5.54586 4.81958L5.6369 5.1142H5.64449H5.94796L5.6976 5.28039H5.69001L5.6976 5.28795Z" fill="white"/>
<path d="M5.6976 6.79126L5.79623 7.08587L5.55345 6.89702L5.31067 7.08587L5.4093 6.79126L5.15894 6.62506H5.46241L5.54586 6.33044L5.6369 6.62506H5.64449H5.94796L5.6976 6.79126H5.69001H5.6976Z" fill="white"/>
<path d="M5.6976 0.770504L5.79623 1.05757L5.55345 0.883819V0.876265V0.883819L5.31067 1.05757L5.4093 0.770504L5.15894 0.60431H5.46241L5.54586 0.309692L5.6369 0.60431H5.64449H5.94796L5.6976 0.770504H5.69001H5.6976Z" fill="white"/>
<path d="M4.09677 2.2738L4.20298 2.56086L3.95262 2.37956L3.70984 2.56086L3.80847 2.2738L3.81606 2.26625H3.80847L3.55811 2.10005H3.86158L3.94503 1.81299L4.04366 2.10005H4.34713L4.09677 2.26625V2.2738Z" fill="white"/>
<path d="M4.09677 3.7771L4.20298 4.06416L3.95262 3.88286L3.70984 4.06416L3.80847 3.7771H3.81606H3.80847L3.55811 3.60335H3.86158L3.94503 3.31628L4.04366 3.60335H4.34713L4.09677 3.7771Z" fill="white"/>
<path d="M4.09677 5.28795L4.20298 5.57501L3.95262 5.39371L3.70984 5.57501L3.80847 5.28795L3.81606 5.28039H3.80847L3.55811 5.1142H3.86158L3.94503 4.81958L4.04366 5.1142H4.34713L4.09677 5.28039V5.28795Z" fill="white"/>
<path d="M4.09677 6.79126L4.20298 7.08587L3.95262 6.89702L3.70984 7.08587L3.80847 6.79126H3.81606H3.80847L3.55811 6.62506H3.86158L3.94503 6.33044L4.04366 6.62506H4.34713L4.09677 6.79126Z" fill="white"/>
<path d="M4.09677 0.770504L4.20298 1.05757L3.95262 0.883819V0.876265V0.883819L3.70984 1.05757L3.80847 0.770504H3.81606H3.80847L3.55811 0.60431H3.86158L3.94503 0.309692L4.04366 0.60431H4.34713L4.09677 0.770504Z" fill="white"/>
<path d="M2.53402 2.2738L2.63265 2.56086L2.38988 2.37956L2.13951 2.56086L2.24573 2.2738V2.26625L1.99536 2.10005H2.29883L2.38229 1.81299L2.47333 2.10005H2.48092H2.78439L2.52644 2.26625L2.53402 2.2738Z" fill="white"/>
<path d="M2.53402 3.7771L2.63265 4.06416L2.38988 3.88286L2.13951 4.06416L2.24573 3.7771L1.99536 3.60335H2.29883L2.38229 3.31628L2.47333 3.60335H2.48092H2.78439L2.52644 3.7771H2.53402Z" fill="white"/>
<path d="M2.53402 5.28795L2.63265 5.57501L2.38988 5.39371L2.13951 5.57501L2.24573 5.28795V5.28039L1.99536 5.1142H2.29883L2.38229 4.81958L2.47333 5.1142H2.48092H2.78439L2.52644 5.28039L2.53402 5.28795Z" fill="white"/>
<path d="M2.53402 6.79126L2.63265 7.08587L2.38988 6.89702L2.13951 7.08587L2.24573 6.79126L1.99536 6.62506H2.29883L2.38229 6.33044L2.47333 6.62506H2.48092H2.78439L2.52644 6.79126H2.53402Z" fill="white"/>
<path d="M2.53402 0.770504L2.63265 1.05757L2.38988 0.883819V0.876265V0.883819L2.13951 1.05757L2.24573 0.770504L1.99536 0.60431H2.29883L2.38229 0.309692L2.47333 0.60431H2.48092H2.78439L2.52644 0.770504H2.53402Z" fill="white"/>
<path d="M0.940763 2.2738L1.04698 2.56086L0.796614 2.37956L0.553836 2.56086L0.652464 2.2738V2.26625L0.4021 2.10005H0.705572L0.789027 1.81299L0.887655 2.10005H1.19113L0.940763 2.26625V2.2738Z" fill="white"/>
<path d="M0.940763 3.7771L1.04698 4.06416L0.796614 3.88286L0.553836 4.06416L0.652464 3.7771L0.4021 3.60335H0.705572L0.789027 3.31628L0.887655 3.60335H1.19113L0.940763 3.7771Z" fill="white"/>
<path d="M0.940763 5.28795L1.04698 5.57501L0.796614 5.39371L0.553836 5.57501L0.652464 5.28795V5.28039L0.4021 5.1142H0.705572L0.789027 4.81958L0.887655 5.1142H1.19113L0.940763 5.28039V5.28795Z" fill="white"/>
<path d="M0.940763 6.79126L1.04698 7.08587L0.796614 6.89702L0.553836 7.08587L0.652464 6.79126L0.4021 6.62506H0.705572L0.789027 6.33044L0.887655 6.62506H1.19113L0.940763 6.79126Z" fill="white"/>
<path d="M0.940763 0.770504L1.04698 1.05757L0.796614 0.883819V0.876265V0.883819L0.553836 1.05757L0.652464 0.770504L0.4021 0.60431H0.705572L0.789027 0.309692L0.887655 0.60431H1.19113L0.940763 0.770504Z" fill="white"/>
</svg>
