<svg width="20" height="33" viewBox="0 0 20 33" fill="none" xmlns="http://www.w3.org/2000/svg">
<path d="M20 9.95122C20 4.46407 15.5306 0 10.0369 0C4.52834 0 0 4.49115 0 9.95122C0 15.0298 3.91454 19.2248 8.92989 19.7689V26.4146H5.60886C4.99749 26.4146 4.50184 26.906 4.50184 27.5122C4.50184 28.1183 4.99749 28.6098 5.60886 28.6098H8.92989V31.9024C8.92989 32.5086 9.42553 33 10.0369 33C10.6483 33 11.1439 32.5086 11.1439 31.9024V28.6098H14.4649C15.0763 28.6098 15.572 28.1183 15.572 27.5122C15.572 26.906 15.0763 26.4146 14.4649 26.4146H11.1439V19.768C16.1185 19.2202 20 15.027 20 9.95122ZM2.21402 9.95122C2.21402 5.67446 5.72339 2.19512 10.0369 2.19512C14.3097 2.19512 17.786 5.67446 17.786 9.95122C17.786 14.1876 14.3097 17.6341 10.0369 17.6341C5.72339 17.6341 2.21402 14.1876 2.21402 9.95122Z" fill="#413D45"/>
</svg>
