<svg width="20" height="22" viewBox="0 0 20 22" fill="none" xmlns="http://www.w3.org/2000/svg">
<path d="M13.344 3.01196H4.70634C4.47235 3.01196 4.28271 3.2016 4.28271 3.43559V8.37265C4.28271 8.60664 4.47235 8.79628 4.70634 8.79628H5.4414C5.67539 8.79628 5.86502 8.60664 5.86502 8.37265C5.86502 8.13867 5.67539 7.94903 5.4414 7.94903H5.12997V3.85921H12.9204V7.94903H8.92853C8.69455 7.94903 8.50491 8.13867 8.50491 8.37265C8.50491 8.60647 8.69455 8.79628 8.92853 8.79628H13.344C13.578 8.79628 13.7676 8.60647 13.7676 8.37265V3.43559C13.7676 3.2016 13.578 3.01196 13.344 3.01196Z" fill="white"/>
<path d="M6.39872 5.5035H11.651C11.885 5.5035 12.0747 5.31386 12.0747 5.07988C12.0747 4.84589 11.885 4.65625 11.651 4.65625H6.39872C6.16474 4.65625 5.9751 4.84589 5.9751 5.07988C5.9751 5.31386 6.16474 5.5035 6.39872 5.5035Z" fill="white"/>
<path d="M12.0747 6.76017C12.0747 6.52619 11.885 6.33655 11.651 6.33655H6.39872C6.16474 6.33655 5.9751 6.52619 5.9751 6.76017C5.9751 6.99416 6.16474 7.1838 6.39872 7.1838H11.651C11.885 7.1838 12.0747 6.99416 12.0747 6.76017Z" fill="white"/>
<path d="M18.0863 8.13147V7.77668C18.0863 7.0638 17.6104 6.46046 16.9598 6.26669V2.02199C16.9598 0.907155 16.0526 0 14.9376 0H1.29173C1.05774 0 0.868102 0.189639 0.868102 0.423626V3.28955H0.423626C0.189639 3.28955 0 3.47919 0 3.71318C0 3.94717 0.189639 4.13681 0.423626 4.13681H0.868102V6.20116H0.423626C0.189639 6.20116 0 6.39079 0 6.62478C0 6.85877 0.189639 7.04841 0.423626 7.04841H0.868102V9.11276H0.423626C0.189639 9.11276 0 9.30256 0 9.53638C0 9.77037 0.189639 9.96001 0.423626 9.96001H0.868102V12.0245H0.423626C0.189639 12.0245 0 12.2142 0 12.4481C0 12.6821 0.189639 12.8718 0.423626 12.8718H0.868102V14.9361H0.423626C0.189639 14.9361 0 15.1258 0 15.3598C0 15.5937 0.189639 15.7834 0.423626 15.7834H0.868102V19.0251C0.868102 19.2591 1.05774 19.4487 1.29173 19.4487H2.80172V21.2395C2.80172 21.3959 2.88794 21.5396 3.02595 21.6132C3.0885 21.6466 3.15701 21.6632 3.22535 21.6632C3.30792 21.6632 3.39017 21.639 3.46116 21.5914L4.34481 20.9991L5.21623 21.5902C5.34596 21.6782 5.51392 21.6873 5.65243 21.6139C5.79093 21.5404 5.87765 21.3964 5.87765 21.2395V19.4487H14.9376C15.1134 19.4487 15.2871 19.4257 15.4549 19.3814C15.5499 19.826 15.6622 20.2402 15.7951 20.5985C15.8441 20.7309 15.9546 20.8275 16.0872 20.8614V21.266C16.0872 21.5 16.2768 21.6896 16.5108 21.6896C16.7448 21.6896 16.9344 21.5 16.9344 21.266V20.8614C17.067 20.8275 17.1775 20.7309 17.2267 20.5985C18.0766 18.3061 18.0863 13.7268 18.0863 13.533V9.03118C18.3784 9.18441 18.5783 9.49038 18.5783 9.84252V13.5433C18.5783 13.7773 18.768 13.9669 19.0019 13.9669C19.2358 13.9669 19.4256 13.7773 19.4256 13.5433V9.84252C19.4256 9.01645 18.8545 8.3216 18.0863 8.13147ZM15.7827 8.27626H17.2391V13.1094H15.7827V8.27626ZM17.1507 7.42901H15.8714C15.8813 7.41064 15.8923 7.39294 15.9038 7.37556C15.9058 7.37242 15.9081 7.36927 15.9103 7.36613C15.9355 7.32956 15.9636 7.2953 15.9949 7.26386C15.995 7.2637 15.9952 7.26353 15.9955 7.26337C16.11 7.14869 16.2628 7.07174 16.4337 7.05304C16.4347 7.05288 16.4357 7.05271 16.4369 7.05271C16.4607 7.05023 16.485 7.04874 16.5097 7.04857H16.5098H16.5136C16.7882 7.04957 17.0274 7.20313 17.1507 7.42901ZM5.03039 20.4404L4.58393 20.1376C4.44112 20.0408 4.25363 20.0403 4.11033 20.1365L3.64898 20.4457V19.4487H5.03039V20.4404ZM14.9376 18.6015H5.45567C5.45518 18.6015 5.45468 18.6015 5.45402 18.6015H3.22535C3.22485 18.6015 3.22419 18.6015 3.22369 18.6015H1.71535V15.7834H2.27881C2.5128 15.7834 2.70244 15.5937 2.70244 15.3598C2.70244 15.1259 2.5128 14.9361 2.27881 14.9361H1.71535V12.8718H2.27881C2.5128 12.8718 2.70244 12.6821 2.70244 12.4481C2.70244 12.2142 2.5128 12.0245 2.27881 12.0245H1.71535V9.96017H2.27881C2.5128 9.96017 2.70244 9.77054 2.70244 9.53655C2.70244 9.30256 2.5128 9.11292 2.27881 9.11292H1.71535V7.04841H2.27881C2.5128 7.04841 2.70244 6.85877 2.70244 6.62478C2.70244 6.39079 2.5128 6.20116 2.27881 6.20116H1.71535V4.13681H2.27881C2.5128 4.13681 2.70244 3.94717 2.70244 3.71318C2.70244 3.47919 2.5128 3.28955 2.27881 3.28955H1.71535V0.847252H14.9376C15.5855 0.847252 16.1125 1.3743 16.1125 2.02199V6.25229C16.0903 6.25808 16.0687 6.2642 16.047 6.27099C15.5481 6.42488 15.1471 6.8308 14.9995 7.33154C14.9571 7.47567 14.9355 7.62643 14.9355 7.77652V13.533C14.9355 13.5502 14.9355 13.6239 14.937 13.7435V13.748C14.937 13.7561 14.9371 13.7644 14.9373 13.7728C14.9459 14.4877 14.9974 16.6374 15.3007 18.5442C15.1842 18.582 15.0617 18.6015 14.9376 18.6015ZM16.5265 20.0276H16.4954C16.3746 19.643 16.2744 19.2003 16.1911 18.7309C16.1905 18.7261 16.19 18.7213 16.1891 18.7165C16.0726 18.0579 15.9896 17.3475 15.9302 16.67C15.832 15.5454 15.7991 14.5112 15.7882 13.9567H17.2336C17.2113 15.0864 17.0983 18.2066 16.5265 20.0276Z" fill="white"/>
<path d="M7.6389 8.21071C7.57056 8.04391 7.39697 7.93767 7.21743 7.95008C7.04169 7.96232 6.88912 8.08726 6.84063 8.25638C6.79215 8.42566 6.85685 8.61431 7.00098 8.71674C7.14362 8.81818 7.33674 8.82099 7.48269 8.72452C7.64883 8.61464 7.71552 8.39455 7.6389 8.21071Z" fill="white"/>
</svg>
