<svg width="143" height="212" viewBox="0 0 143 212" fill="none" xmlns="http://www.w3.org/2000/svg">
<g style="mix-blend-mode:multiply">
<path d="M-25.6602 62.1383C-18.2702 79.2583 -10.4702 96.8884 3.22978 109.538C27.6498 132.068 64.2798 133.468 97.5098 133.198C102.65 133.198 108.18 133.198 112.4 136.198C116.09 138.758 118.1 143.048 119.95 147.138L140.2 191.948C141.46 194.728 142.75 197.708 142.28 200.718C141.73 204.308 138.83 207.048 135.84 209.098C127.48 214.818 117.34 217.278 107.37 219.098C65.9298 226.568 23.1398 224.488 -18.2402 216.698C-47.7002 211.158 -77.3602 202.388 -101.24 184.278C-107.06 179.878 -112.59 174.798 -115.95 168.328C-118.95 162.578 -120.05 156.028 -120.48 149.568C-121.48 134.518 -119.06 119.468 -116.48 104.618C-112.74 83.5483 -108.42 62.6184 -104 41.6984C-101.71 30.8184 -100.66 11.5783 -90.7002 4.29834C-62.2202 -16.5617 -33.3502 44.3383 -25.6602 62.1383Z" fill="#F5F8FF"/>
</g>
</svg>
