<svg width="16" height="21" viewBox="0 0 16 21" fill="none" xmlns="http://www.w3.org/2000/svg">
<path d="M13.5625 20.6667H1.9375C0.869722 20.6667 0 19.7978 0 18.7292V9.6875C0 8.61886 0.869722 7.75 1.9375 7.75H13.5625C14.6303 7.75 15.5 8.61886 15.5 9.6875V18.7292C15.5 19.7978 14.6303 20.6667 13.5625 20.6667ZM1.9375 9.04167C1.58186 9.04167 1.29167 9.331 1.29167 9.6875V18.7292C1.29167 19.0857 1.58186 19.375 1.9375 19.375H13.5625C13.9181 19.375 14.2083 19.0857 14.2083 18.7292V9.6875C14.2083 9.331 13.9181 9.04167 13.5625 9.04167H1.9375Z" fill="#413D45"/>
<path d="M12.2715 9.04167C11.915 9.04167 11.6257 8.75233 11.6257 8.39583V5.16667C11.6257 3.03025 9.88707 1.29167 7.75065 1.29167C5.61423 1.29167 3.87565 3.03025 3.87565 5.16667V8.39583C3.87565 8.75233 3.58632 9.04167 3.22982 9.04167C2.87332 9.04167 2.58398 8.75233 2.58398 8.39583V5.16667C2.58398 2.31725 4.90123 0 7.75065 0C10.6001 0 12.9173 2.31725 12.9173 5.16667V8.39583C12.9173 8.75233 12.628 9.04167 12.2715 9.04167Z" fill="#413D45"/>
<path d="M7.74957 14.6389C6.79976 14.6389 6.02734 13.8665 6.02734 12.9167C6.02734 11.9669 6.79976 11.1945 7.74957 11.1945C8.69937 11.1945 9.47179 11.9669 9.47179 12.9167C9.47179 13.8665 8.69937 14.6389 7.74957 14.6389ZM7.74957 12.4861C7.51276 12.4861 7.31901 12.679 7.31901 12.9167C7.31901 13.1543 7.51276 13.3472 7.74957 13.3472C7.98637 13.3472 8.18012 13.1543 8.18012 12.9167C8.18012 12.679 7.98637 12.4861 7.74957 12.4861Z" fill="#413D45"/>
<path d="M7.74935 17.2222C7.39285 17.2222 7.10352 16.9329 7.10352 16.5764V14.2083C7.10352 13.8518 7.39285 13.5625 7.74935 13.5625C8.10585 13.5625 8.39518 13.8518 8.39518 14.2083V16.5764C8.39518 16.9329 8.10585 17.2222 7.74935 17.2222Z" fill="#413D45"/>
</svg>
