<svg width="21" height="19" viewBox="0 0 21 19" fill="none" xmlns="http://www.w3.org/2000/svg">
<path d="M19.8515 10.2463L19.8513 10.2463L17.8184 11.6795L17.8184 11.6795C17.3507 12.0093 16.7046 11.6737 16.7046 11.102V10.3754H7.09371C6.70347 10.3754 6.38705 10.0591 6.38705 9.66877C6.38705 9.27847 6.70348 8.96215 7.09371 8.96215H16.7045V8.23563C16.7045 7.6594 17.3546 7.33121 17.8183 7.65807L17.8183 7.65808L19.8512 9.09124C19.8512 9.09125 19.8512 9.09126 19.8512 9.09127C20.2452 9.3689 20.2538 9.96197 19.8515 10.2463Z" fill="#7398FF" stroke="#7398FF" stroke-width="0.3"/>
<path d="M17.049 6.22419L17.049 6.22421C16.7113 6.41951 16.279 6.30421 16.0835 5.96634L16.2134 5.89123L16.0835 5.96634C14.8017 3.75037 12.406 2.26323 9.66854 2.26323C5.58542 2.26323 2.26328 5.58537 2.26328 9.66849C2.26328 13.7516 5.58542 17.0738 9.66854 17.0738C12.4078 17.0738 14.8024 15.5852 16.0835 13.3707C16.2789 13.0328 16.7113 12.9176 17.049 13.1128L17.049 13.1129C17.3868 13.3083 17.5022 13.7406 17.3069 14.0784L17.3069 14.0784C15.7772 16.7227 12.92 18.487 9.66854 18.487C4.79458 18.487 0.85 14.5429 0.85 9.66849C0.85 4.79453 4.79416 0.849949 9.66854 0.849949C12.9214 0.849949 15.7779 2.6155 17.3069 5.25869L17.3069 5.2587C17.5023 5.5965 17.3868 6.02875 17.049 6.22419Z" fill="#7398FF" stroke="#7398FF" stroke-width="0.3"/>
</svg>
