<svg width="24" height="30" viewBox="0 0 24 30" fill="none" xmlns="http://www.w3.org/2000/svg">
<path d="M15.8238 12.4515L20.4272 4.47812L21.3215 7.81548C21.4738 8.38387 22.058 8.72128 22.6265 8.5689C23.1949 8.41659 23.5322 7.83236 23.3799 7.26393L21.8199 1.44184C21.6677 0.873441 21.0834 0.536099 20.5149 0.688409L14.6928 2.24843C14.1244 2.40074 13.7871 2.98498 13.9394 3.55341C14.0917 4.1218 14.676 4.45915 15.2444 4.30684L18.5817 3.4126L13.9778 11.3868C9.56525 9.45327 4.2944 11.1107 1.83061 15.3781C-0.832865 19.9914 0.725835 25.8954 5.30515 28.5393C9.89689 31.1904 15.8516 29.5938 18.5019 25.0033C20.967 20.7335 19.7403 15.3227 15.8238 12.4515ZM6.37066 26.6938C2.80898 24.6374 1.60019 20.0393 3.67614 16.4436C5.73248 12.8819 10.3031 11.6572 13.8648 13.7136C17.4604 15.7895 18.7127 20.3761 16.6564 23.9377C14.5804 27.5334 9.96625 28.7697 6.37066 26.6938Z" fill="#7398FF"/>
</svg>
