<svg width="12" height="23" viewBox="0 0 12 23" fill="none" xmlns="http://www.w3.org/2000/svg">
<path d="M10.0745 0H1.76106C0.790025 0 0 0.780797 0 1.74067V21.2592C0 22.2191 0.790025 23 1.76106 23H10.075C11.0458 23 11.8358 22.219 11.8358 21.2592V1.74067C11.8356 0.780797 11.0456 0 10.0745 0ZM1.76106 0.580746H10.075C10.6714 0.580746 11.1601 1.02486 11.2333 1.59546H0.602472C0.675351 1.02481 1.16414 0.580746 1.76106 0.580746ZM11.248 21.2591C11.248 21.8987 10.7216 22.4191 10.0745 22.4191H1.76106C1.11402 22.4191 0.587648 21.8987 0.587648 21.2591V21.1024H11.2485V21.2591H11.248ZM11.248 20.8119H0.587648V1.88588H11.2485V20.8119H11.248Z" fill="#413D45"/>
<path d="M2.24989 1.40849C2.40171 1.40849 2.5248 1.28682 2.5248 1.13674C2.5248 0.986657 2.40171 0.86499 2.24989 0.86499C2.09806 0.86499 1.97498 0.986657 1.97498 1.13674C1.97498 1.28682 2.09806 1.40849 2.24989 1.40849Z" fill="#413D45"/>
<path d="M7.03359 0.86438H4.81765C4.68245 0.86438 4.61275 0.965533 4.66133 1.08972L4.66842 1.10726C4.71736 1.23145 4.86629 1.33246 5.00134 1.33246H6.91153C7.04678 1.33246 7.18317 1.22758 7.21743 1.0983C7.2506 0.969404 7.16879 0.86438 7.03359 0.86438Z" fill="#413D45"/>
</svg>
