<svg width="19" height="24" viewBox="0 0 19 24" fill="none" xmlns="http://www.w3.org/2000/svg">
<path d="M13.9664 11.1453C13.6545 11.5381 13.304 11.9007 12.9015 12.228C15.199 13.5459 16.7501 16.0235 16.7501 18.8567C16.7501 20.3875 13.3959 21.5868 9.11401 21.5868C4.83212 21.5868 1.47794 20.3875 1.47794 18.8567C1.47794 16.0235 3.02901 13.5459 5.3265 12.228C4.92405 11.9007 4.57361 11.5381 4.26162 11.1453C1.70309 12.761 0 15.6135 0 18.8567C0 19.8391 0.537947 21.2083 3.10088 22.1519C4.69955 22.7406 6.83507 23.0647 9.11406 23.0647C11.3931 23.0647 13.5286 22.7406 15.1272 22.1519C17.6901 21.2083 18.2281 19.8391 18.2281 18.8567C18.228 15.6135 16.5249 12.761 13.9664 11.1453Z" fill="#413D45"/>
<path d="M9.11444 12.1192C11.9868 12.1192 14.1986 9.34275 14.1986 6.05963C14.1986 2.77499 11.9857 0 9.11444 0C6.2421 0 4.03027 2.77646 4.03027 6.05958C4.03027 9.34422 6.24326 12.1192 9.11444 12.1192ZM9.11444 1.47794C11.1029 1.47794 12.7207 3.53324 12.7207 6.05958C12.7207 8.58592 11.1029 10.6412 9.11444 10.6412C7.12599 10.6412 5.50821 8.58592 5.50821 6.05958C5.50821 3.53324 7.12599 1.47794 9.11444 1.47794Z" fill="#413D45"/>
</svg>
