<svg width="20" height="20" viewBox="0 0 20 20" fill="none" xmlns="http://www.w3.org/2000/svg">
<path d="M16.6797 2.25625H15.2125V1.5625C15.2125 1.16902 14.8935 0.85 14.5 0.85C14.1065 0.85 13.7875 1.16902 13.7875 1.5625V2.25625H6.2125V1.5625C6.2125 1.16902 5.89352 0.85 5.5 0.85C5.10648 0.85 4.7875 1.16902 4.7875 1.5625V2.25625H3.32031C1.95803 2.25625 0.85 3.36428 0.85 4.72656V16.6797C0.85 18.042 1.95803 19.15 3.32031 19.15H16.6797C18.042 19.15 19.15 18.042 19.15 16.6797V4.72656C19.15 3.36428 18.042 2.25625 16.6797 2.25625ZM3.32031 3.68125H4.7875V4.09375C4.7875 4.48723 5.10648 4.80625 5.5 4.80625C5.89352 4.80625 6.2125 4.48723 6.2125 4.09375V3.68125H13.7875V4.09375C13.7875 4.48723 14.1065 4.80625 14.5 4.80625C14.8935 4.80625 15.2125 4.48723 15.2125 4.09375V3.68125H16.6797C17.256 3.68125 17.725 4.1503 17.725 4.72656V5.9125H2.275V4.72656C2.275 4.1503 2.74405 3.68125 3.32031 3.68125ZM16.6797 17.725H3.32031C2.74405 17.725 2.275 17.256 2.275 16.6797V7.3375H17.725V16.6797C17.725 17.256 17.256 17.725 16.6797 17.725Z" fill="#7398FF" stroke="#7398FF" stroke-width="0.3"/>
</svg>
