<svg width="18" height="20" viewBox="0 0 18 20" fill="none" xmlns="http://www.w3.org/2000/svg">
<path d="M9.07377 15.0001C12.7358 15.0001 15.9388 16.5751 17.6808 18.9251L15.8388 19.7961C14.4208 18.1161 11.9208 17.0001 9.07377 17.0001C6.22677 17.0001 3.72677 18.1161 2.30877 19.7961L0.467773 18.9241C2.20977 16.5741 5.41177 15.0001 9.07377 15.0001ZM9.07377 0.00012207C10.3999 0.00012207 11.6716 0.526906 12.6093 1.46459C13.547 2.40227 14.0738 3.67404 14.0738 5.00012V8.00012C14.0737 9.28858 13.5762 10.5273 12.6851 11.4579C11.794 12.3885 10.578 12.9392 9.29077 12.9951L9.07377 13.0001C7.74769 13.0001 6.47592 12.4733 5.53824 11.5357C4.60056 10.598 4.07377 9.3262 4.07377 8.00012V5.00012C4.07385 3.71166 4.57131 2.47296 5.46243 1.54234C6.35355 0.611729 7.56952 0.0610415 8.85677 0.00512218L9.07377 0.00012207ZM9.07377 2.00012C8.30856 2.00008 7.57226 2.29245 7.01551 2.81741C6.45877 3.34236 6.12367 4.06023 6.07877 4.82412L6.07377 5.00012V8.00012C6.07302 8.78103 6.37679 9.53145 6.92054 10.0919C7.4643 10.6524 8.20517 10.9788 8.98574 11.0017C9.76631 11.0246 10.525 10.7423 11.1007 10.2147C11.6764 9.68703 12.0237 8.95572 12.0688 8.17612L12.0738 8.00012V5.00012C12.0738 4.20447 11.7577 3.44141 11.1951 2.8788C10.6325 2.31619 9.86942 2.00012 9.07377 2.00012Z" fill="#413D45"/>
</svg>
