<svg width="16" height="20" viewBox="0 0 16 20" fill="none" xmlns="http://www.w3.org/2000/svg">
<mask id="path-1-outside-1_493_57" maskUnits="userSpaceOnUse" x="0" y="0" width="16" height="20" fill="black">
<rect fill="white" width="16" height="20"/>
<path d="M6.34423 12.7525C7.66769 12.6357 8.99879 12.6357 10.3222 12.7525L10.7448 12.7882C11.3228 12.8452 11.8967 12.9344 12.4614 13.055C13.9009 13.3515 14.9462 13.8776 15.4089 14.8533C15.7526 15.5793 15.7526 16.4221 15.4087 17.1484C14.9449 18.1266 13.8861 18.6571 12.4722 18.936L12.0438 19.025C11.4712 19.1349 10.8938 19.2099 10.3202 19.2491C9.24399 19.3407 8.16271 19.3574 7.11969 19.3001C7.00471 19.3001 6.92755 19.2997 6.85955 19.2981L6.72732 19.2931C6.56655 19.2849 6.41925 19.2681 6.35744 19.25C5.63179 19.2007 4.91096 19.0956 4.21947 18.9396L3.98491 18.8906C2.6755 18.5997 1.7058 18.0748 1.25725 17.1473C1.08738 16.7875 0.999508 16.3941 1.00002 15.9992C0.998542 15.6014 1.08713 15.2085 1.26332 14.8416C1.73047 13.9033 2.82801 13.3387 4.19992 13.0561C4.91071 12.9037 5.63132 12.802 6.34423 12.7525ZM10.2066 14.0744C8.9601 13.9645 7.70638 13.9645 6.44771 14.0754C5.78467 14.1215 5.12569 14.2146 4.47057 14.355C3.45595 14.564 2.6802 14.963 2.44944 15.4264C2.36446 15.6034 2.32068 15.7976 2.32141 15.9975C2.32116 16.1986 2.36552 16.3972 2.44857 16.5732C2.68591 17.0639 3.41792 17.4307 4.49046 17.6409L4.8136 17.7093C5.35479 17.8166 5.91218 17.8906 6.53162 17.9373C6.60985 17.953 6.69426 17.9627 6.79442 17.9678L7.15522 17.974C8.17289 18.029 9.19312 18.0133 10.2194 17.926C10.8809 17.8806 11.538 17.7853 12.2012 17.6373L12.4075 17.5936C13.3494 17.38 14.001 17.0305 14.2155 16.5782C14.3885 16.2128 14.3885 15.7886 14.2157 15.4236C13.9861 14.9394 13.2605 14.5743 12.1913 14.354C11.5409 14.2151 10.8816 14.122 10.2182 14.0753L10.2066 14.0744ZM8.33727 1C11.0268 1 13.2071 3.18959 13.2071 5.89058C13.2071 8.59157 11.0268 10.7812 8.33727 10.7812C5.64775 10.7812 3.46746 8.59157 3.46746 5.89058C3.46746 3.18959 5.64775 1 8.33727 1ZM8.33727 2.32703C6.37753 2.32703 4.78885 3.92248 4.78885 5.89058C4.78885 7.85867 6.37753 9.45412 8.33727 9.45412C10.297 9.45412 11.8857 7.85867 11.8857 5.89058C11.8857 3.92248 10.297 2.32703 8.33727 2.32703Z"/>
</mask>
<path d="M6.34423 12.7525C7.66769 12.6357 8.99879 12.6357 10.3222 12.7525L10.7448 12.7882C11.3228 12.8452 11.8967 12.9344 12.4614 13.055C13.9009 13.3515 14.9462 13.8776 15.4089 14.8533C15.7526 15.5793 15.7526 16.4221 15.4087 17.1484C14.9449 18.1266 13.8861 18.6571 12.4722 18.936L12.0438 19.025C11.4712 19.1349 10.8938 19.2099 10.3202 19.2491C9.24399 19.3407 8.16271 19.3574 7.11969 19.3001C7.00471 19.3001 6.92755 19.2997 6.85955 19.2981L6.72732 19.2931C6.56655 19.2849 6.41925 19.2681 6.35744 19.25C5.63179 19.2007 4.91096 19.0956 4.21947 18.9396L3.98491 18.8906C2.6755 18.5997 1.7058 18.0748 1.25725 17.1473C1.08738 16.7875 0.999508 16.3941 1.00002 15.9992C0.998542 15.6014 1.08713 15.2085 1.26332 14.8416C1.73047 13.9033 2.82801 13.3387 4.19992 13.0561C4.91071 12.9037 5.63132 12.802 6.34423 12.7525ZM10.2066 14.0744C8.9601 13.9645 7.70638 13.9645 6.44771 14.0754C5.78467 14.1215 5.12569 14.2146 4.47057 14.355C3.45595 14.564 2.6802 14.963 2.44944 15.4264C2.36446 15.6034 2.32068 15.7976 2.32141 15.9975C2.32116 16.1986 2.36552 16.3972 2.44857 16.5732C2.68591 17.0639 3.41792 17.4307 4.49046 17.6409L4.8136 17.7093C5.35479 17.8166 5.91218 17.8906 6.53162 17.9373C6.60985 17.953 6.69426 17.9627 6.79442 17.9678L7.15522 17.974C8.17289 18.029 9.19312 18.0133 10.2194 17.926C10.8809 17.8806 11.538 17.7853 12.2012 17.6373L12.4075 17.5936C13.3494 17.38 14.001 17.0305 14.2155 16.5782C14.3885 16.2128 14.3885 15.7886 14.2157 15.4236C13.9861 14.9394 13.2605 14.5743 12.1913 14.354C11.5409 14.2151 10.8816 14.122 10.2182 14.0753L10.2066 14.0744ZM8.33727 1C11.0268 1 13.2071 3.18959 13.2071 5.89058C13.2071 8.59157 11.0268 10.7812 8.33727 10.7812C5.64775 10.7812 3.46746 8.59157 3.46746 5.89058C3.46746 3.18959 5.64775 1 8.33727 1ZM8.33727 2.32703C6.37753 2.32703 4.78885 3.92248 4.78885 5.89058C4.78885 7.85867 6.37753 9.45412 8.33727 9.45412C10.297 9.45412 11.8857 7.85867 11.8857 5.89058C11.8857 3.92248 10.297 2.32703 8.33727 2.32703Z" fill="#7398FF"/>
<path d="M6.34423 12.7525L6.35808 12.952L6.36181 12.9517L6.34423 12.7525ZM10.3222 12.7525L10.3047 12.9517L10.3054 12.9518L10.3222 12.7525ZM10.7448 12.7882L10.7644 12.5892L10.7617 12.5889L10.7448 12.7882ZM12.4614 13.055L12.4197 13.2506L12.4211 13.2509L12.4614 13.055ZM15.4089 14.8533L15.5896 14.7678L15.5896 14.7677L15.4089 14.8533ZM15.4087 17.1484L15.5894 17.2341L15.5895 17.234L15.4087 17.1484ZM12.4722 18.936L12.4335 18.7398L12.4315 18.7402L12.4722 18.936ZM12.0438 19.025L12.0815 19.2214L12.0844 19.2208L12.0438 19.025ZM10.3202 19.2491L10.3066 19.0495L10.3033 19.0498L10.3202 19.2491ZM7.11969 19.3001L7.13069 19.1001H7.11969V19.3001ZM6.85955 19.2981L6.85206 19.498L6.85492 19.498L6.85955 19.2981ZM6.72732 19.2931L6.71712 19.4929L6.71983 19.493L6.72732 19.2931ZM6.35744 19.25L6.41368 19.058L6.39276 19.0519L6.371 19.0504L6.35744 19.25ZM4.21947 18.9396L4.26349 18.7445L4.26032 18.7438L4.21947 18.9396ZM3.98491 18.8906L3.94152 19.0859L3.94405 19.0864L3.98491 18.8906ZM1.25725 17.1473L1.07638 17.2327L1.0772 17.2344L1.25725 17.1473ZM1.00002 15.9992L1.20002 15.9994L1.20002 15.9984L1.00002 15.9992ZM1.26332 14.8416L1.08426 14.7524L1.08303 14.755L1.26332 14.8416ZM4.19992 13.0561L4.24027 13.252L4.24183 13.2516L4.19992 13.0561ZM10.2066 14.0744L10.189 14.2737L10.1908 14.2738L10.2066 14.0744ZM6.44771 14.0754L6.46159 14.2749L6.46527 14.2746L6.44771 14.0754ZM4.47057 14.355L4.51092 14.5508L4.51247 14.5505L4.47057 14.355ZM2.44944 15.4264L2.27039 15.3372L2.26913 15.3398L2.44944 15.4264ZM2.32141 15.9975L2.52141 15.9978L2.52141 15.9968L2.32141 15.9975ZM2.44857 16.5732L2.26768 16.6586L2.26852 16.6603L2.44857 16.5732ZM4.49046 17.6409L4.53189 17.4452L4.52892 17.4446L4.49046 17.6409ZM4.8136 17.7093L4.77217 17.905L4.77471 17.9055L4.8136 17.7093ZM6.53162 17.9373L6.571 17.7412L6.55894 17.7388L6.54667 17.7379L6.53162 17.9373ZM6.79442 17.9678L6.78421 18.1677L6.79099 18.1678L6.79442 17.9678ZM7.15522 17.974L7.16603 17.7741L7.15865 17.774L7.15522 17.974ZM10.2194 17.926L10.2058 17.7264L10.2025 17.7267L10.2194 17.926ZM12.2012 17.6373L12.1598 17.4416L12.1577 17.4421L12.2012 17.6373ZM12.4075 17.5936L12.4489 17.7893L12.4517 17.7887L12.4075 17.5936ZM14.2155 16.5782L14.3962 16.6639L14.3963 16.6638L14.2155 16.5782ZM14.2157 15.4236L14.3965 15.338L14.3964 15.3379L14.2157 15.4236ZM12.1913 14.354L12.1495 14.5496L12.1509 14.5499L12.1913 14.354ZM10.2182 14.0753L10.2024 14.2747L10.2042 14.2748L10.2182 14.0753ZM6.36181 12.9517C7.67357 12.836 8.99291 12.836 10.3047 12.9517L10.3398 12.5533C9.00467 12.4355 7.66181 12.4355 6.32666 12.5533L6.36181 12.9517ZM10.3054 12.9518L10.7279 12.9875L10.7617 12.5889L10.3391 12.5532L10.3054 12.9518ZM10.7252 12.9873C11.2958 13.0435 11.8623 13.1316 12.4197 13.2506L12.5032 12.8594C11.9311 12.7373 11.3498 12.6469 10.7644 12.5892L10.7252 12.9873ZM12.4211 13.2509C13.8449 13.5442 14.8075 14.052 15.2282 14.939L15.5896 14.7677C15.0849 13.7032 13.9569 13.1589 12.5018 12.8591L12.4211 13.2509ZM15.2281 14.9389C15.5462 15.6107 15.5462 16.3907 15.228 17.0628L15.5895 17.234C15.959 16.4535 15.959 15.5479 15.5896 14.7678L15.2281 14.9389ZM15.228 17.0627C14.8063 17.9521 13.8302 18.4643 12.4335 18.7398L12.5109 19.1322C13.942 18.8499 15.0835 18.3011 15.5894 17.2341L15.228 17.0627ZM12.4315 18.7402L12.0031 18.8291L12.0844 19.2208L12.5128 19.1318L12.4315 18.7402ZM12.0061 18.8285C11.4414 18.9369 10.872 19.0109 10.3066 19.0496L10.3339 19.4486C10.9156 19.4088 11.501 19.3328 12.0815 19.2214L12.0061 18.8285ZM10.3033 19.0498C9.2361 19.1407 8.16416 19.1572 7.13068 19.1004L7.10871 19.4998C8.16126 19.5577 9.25187 19.5408 10.3372 19.4484L10.3033 19.0498ZM7.11969 19.1001C7.00481 19.1001 6.92966 19.0997 6.86419 19.0981L6.85492 19.498C6.92543 19.4997 7.00462 19.5001 7.11969 19.5001V19.1001ZM6.86704 19.0982L6.73481 19.0933L6.71983 19.493L6.85206 19.4979L6.86704 19.0982ZM6.73752 19.0934C6.57514 19.0851 6.45 19.0687 6.41368 19.058L6.30121 19.4419C6.3885 19.4675 6.55796 19.4847 6.71712 19.4929L6.73752 19.0934ZM6.371 19.0504C5.65545 19.0018 4.94481 18.8982 4.26349 18.7445L4.17545 19.1347C4.87712 19.293 5.60814 19.3995 6.34388 19.4495L6.371 19.0504ZM4.26032 18.7438L4.02576 18.6949L3.94405 19.0864L4.17861 19.1354L4.26032 18.7438ZM4.02829 18.6954C2.73994 18.4091 1.84577 17.9049 1.4373 17.0603L1.0772 17.2344C1.56583 18.2448 2.61107 18.7903 3.94152 19.0859L4.02829 18.6954ZM1.43811 17.062C1.28083 16.7288 1.19955 16.3646 1.20002 15.9994L0.800018 15.9989C0.79947 16.4235 0.893917 16.8461 1.07639 17.2327L1.43811 17.062ZM1.20002 15.9984C1.19865 15.6312 1.28036 15.2681 1.44361 14.9281L1.08303 14.755C0.893895 15.1489 0.79843 15.5716 0.80002 15.9999L1.20002 15.9984ZM1.44236 14.9307C1.86742 14.0769 2.88639 13.5308 4.24027 13.252L4.15957 12.8602C2.76964 13.1465 1.59351 13.7296 1.08428 14.7524L1.44236 14.9307ZM4.24183 13.2516C4.94346 13.1013 5.6547 13.0008 6.35808 12.952L6.33038 12.553C5.60794 12.6031 4.87796 12.7062 4.15801 12.8605L4.24183 13.2516ZM10.2242 13.8752C8.96592 13.7642 7.70045 13.7642 6.43015 13.8762L6.46527 14.2746C7.71231 14.1647 8.95427 14.1647 10.189 14.2736L10.2242 13.8752ZM6.43383 13.8759C5.76132 13.9227 5.09298 14.017 4.42866 14.1594L4.51247 14.5505C5.1584 14.4121 5.80801 14.3204 6.46159 14.2749L6.43383 13.8759ZM4.43021 14.1591C3.90946 14.2663 3.44312 14.4237 3.07298 14.6183C2.70783 14.8103 2.41306 15.0508 2.27041 15.3372L2.62846 15.5155C2.71658 15.3386 2.92506 15.148 3.25913 14.9723C3.58821 14.7993 4.01706 14.6526 4.51092 14.5508L4.43021 14.1591ZM2.26913 15.3398C2.17095 15.5444 2.12058 15.7684 2.12141 15.9983L2.52141 15.9968C2.52079 15.8268 2.55797 15.6625 2.62974 15.5129L2.26913 15.3398ZM2.12141 15.9973C2.12113 16.2275 2.17181 16.4554 2.26769 16.6586L2.62945 16.4879C2.55924 16.3391 2.5212 16.1698 2.52141 15.9978L2.12141 15.9973ZM2.26852 16.6603C2.41338 16.9598 2.69767 17.2002 3.06444 17.3899C3.43344 17.5807 3.90428 17.7298 4.45199 17.8372L4.52892 17.4446C4.0041 17.3418 3.57265 17.2024 3.24818 17.0346C2.92147 16.8657 2.72109 16.6774 2.62862 16.4861L2.26852 16.6603ZM4.44903 17.8366L4.77217 17.905L4.85502 17.5137L4.53188 17.4452L4.44903 17.8366ZM4.77471 17.9055C5.32469 18.0145 5.89011 18.0895 6.51656 18.1368L6.54667 17.7379C5.93426 17.6917 5.3849 17.6187 4.85249 17.5131L4.77471 17.9055ZM6.49223 18.1334C6.58242 18.1515 6.67696 18.1621 6.78422 18.1675L6.80462 17.7681C6.71156 17.7633 6.63727 17.7546 6.571 17.7412L6.49223 18.1334ZM6.79099 18.1678L7.1518 18.174L7.15865 17.774L6.79784 17.7678L6.79099 18.1678ZM7.14442 18.1737C8.17139 18.2292 9.2009 18.2133 10.2364 18.1253L10.2025 17.7267C9.18535 17.8132 8.17438 17.8288 7.16602 17.7743L7.14442 18.1737ZM10.2331 18.1255C10.9048 18.0795 11.5719 17.9826 12.2448 17.8325L12.1577 17.4421C11.5041 17.5879 10.857 17.6818 10.2058 17.7264L10.2331 18.1255ZM12.2427 17.8329L12.4489 17.7893L12.366 17.3979L12.1598 17.4416L12.2427 17.8329ZM12.4517 17.7887C12.9343 17.6792 13.3521 17.533 13.6813 17.3503C14.0086 17.1687 14.2644 16.942 14.3962 16.6639L14.0348 16.4925C13.9522 16.6667 13.7749 16.8409 13.4872 17.0006C13.2015 17.1591 12.8225 17.2944 12.3632 17.3986L12.4517 17.7887ZM14.3963 16.6638C14.5949 16.2442 14.595 15.7572 14.3965 15.338L14.0349 15.5091C14.1821 15.82 14.1821 16.1814 14.0348 16.4926L14.3963 16.6638ZM14.3964 15.3379C14.2555 15.0406 13.9741 14.802 13.6109 14.6125C13.2452 14.4217 12.7772 14.2705 12.2317 14.1581L12.1509 14.5499C12.6746 14.6578 13.104 14.7992 13.4259 14.9671C13.7501 15.1363 13.9464 15.3223 14.035 15.5092L14.3964 15.3379ZM12.2331 14.1584C11.5735 14.0176 10.9049 13.9232 10.2323 13.8758L10.2042 14.2748C10.8582 14.3209 11.5082 14.4127 12.1495 14.5496L12.2331 14.1584ZM10.234 13.876L10.2224 13.875L10.1908 14.2738L10.2024 14.2747L10.234 13.876ZM8.33727 1.2C10.9155 1.2 13.0071 3.29924 13.0071 5.89058H13.4071C13.4071 3.07993 11.1381 0.8 8.33727 0.8V1.2ZM13.0071 5.89058C13.0071 8.48191 10.9155 10.5812 8.33727 10.5812V10.9812C11.1381 10.9812 13.4071 8.70122 13.4071 5.89058H13.0071ZM8.33727 10.5812C5.75901 10.5812 3.66746 8.48191 3.66746 5.89058H3.26746C3.26746 8.70122 5.53649 10.9812 8.33727 10.9812V10.5812ZM3.66746 5.89058C3.66746 3.29924 5.75901 1.2 8.33727 1.2V0.8C5.53649 0.8 3.26746 3.07993 3.26746 5.89058H3.66746ZM8.33727 2.12703C6.26627 2.12703 4.58885 3.81283 4.58885 5.89058H4.98885C4.98885 4.03214 6.48879 2.52703 8.33727 2.52703V2.12703ZM4.58885 5.89058C4.58885 7.96832 6.26627 9.65412 8.33727 9.65412V9.25412C6.48879 9.25412 4.98885 7.74901 4.98885 5.89058H4.58885ZM8.33727 9.65412C10.4083 9.65412 12.0857 7.96832 12.0857 5.89058H11.6857C11.6857 7.74901 10.1857 9.25412 8.33727 9.25412V9.65412ZM12.0857 5.89058C12.0857 3.81283 10.4083 2.12703 8.33727 2.12703V2.52703C10.1857 2.52703 11.6857 4.03214 11.6857 5.89058H12.0857Z" fill="#7398FF" mask="url(#path-1-outside-1_493_57)"/>
</svg>
