<svg width="17" height="22" viewBox="0 0 17 22" fill="none" xmlns="http://www.w3.org/2000/svg">
<path d="M4.22803 4.88039V3.15831C4.22803 3.11147 4.24664 3.06654 4.27976 3.03342C4.31288 3.0003 4.35781 2.98169 4.40465 2.98169H12.1127C12.1595 2.98169 12.2044 3.0003 12.2376 3.03342C12.2707 3.06654 12.2893 3.11147 12.2893 3.15831V4.88039H4.22803Z" fill="white"/>
<path fill-rule="evenodd" clip-rule="evenodd" d="M11.0331 1.56859H12.1121C12.5337 1.56859 12.938 1.73607 13.2361 2.03418C13.5342 2.33229 13.7017 2.73661 13.7017 3.1582V4.88028H2.81445V3.1582C2.81445 2.73661 2.98193 2.33229 3.28004 2.03418C3.57815 1.73607 3.98247 1.56859 4.40406 1.56859H5.96612V1.41299C5.96612 1.03824 6.11499 0.678841 6.37997 0.413854C6.64496 0.148868 7.00436 0 7.3791 0H9.6201C9.99485 0 10.3542 0.148868 10.6192 0.413854C10.8842 0.678841 11.0331 1.03824 11.0331 1.41299V1.56859ZM7.76025 1.87768H9.23947C9.32144 1.87768 9.40006 1.84512 9.45803 1.78715C9.51599 1.72918 9.54856 1.65057 9.54856 1.56859C9.54856 1.48661 9.51599 1.40799 9.45803 1.35003C9.40006 1.29206 9.32144 1.2595 9.23947 1.2595H7.76025C7.67827 1.2595 7.59966 1.29206 7.54169 1.35003C7.48372 1.40799 7.45116 1.48661 7.45116 1.56859C7.45116 1.65057 7.48372 1.72918 7.54169 1.78715C7.59966 1.84512 7.67827 1.87768 7.76025 1.87768Z" fill="white"/>
<path d="M13.7021 3.09082V4.74666H2.81485V3.09082H0.706493C0.51912 3.09082 0.339421 3.16525 0.206927 3.29775C0.0744341 3.43024 0 3.60994 0 3.79731V21.1495C0 21.3369 0.0744341 21.5166 0.206927 21.6491C0.339421 21.7816 0.51912 21.856 0.706493 21.856H16.2935C16.4809 21.856 16.6606 21.7816 16.7931 21.6491C16.9256 21.5166 17 21.3369 17 21.1495V3.79731C17 3.60994 16.9256 3.43024 16.7931 3.29775C16.6606 3.16525 16.4809 3.09082 16.2935 3.09082H13.7021Z" fill="white"/>
<path fill-rule="evenodd" clip-rule="evenodd" d="M12.938 12.6506C12.938 14.943 11.0797 16.8013 8.78737 16.8013C6.49503 16.8013 4.63672 14.943 4.63672 12.6506C4.63672 10.3583 6.49503 8.5 8.78737 8.5C11.0797 8.5 12.938 10.3583 12.938 12.6506ZM9.33828 12.0997H11.2803V13.2021H9.33828V15.1439H8.23615V13.2021H6.29418V12.0997H8.23615V10.1578H9.33828V12.0997Z" fill="#EBEBEB"/>
</svg>
