<svg width="76" height="148" viewBox="0 0 76 148" fill="none" xmlns="http://www.w3.org/2000/svg">
<g style="mix-blend-mode:multiply">
<path d="M109.441 3.85829C91.8809 10.8583 73.3009 18.5783 62.5109 34.0883C53.9909 46.3283 50.9408 62.6483 39.2408 71.8983C29.0008 79.9883 13.8309 81.0683 5.48086 91.0983C-3.21914 101.538 -0.659135 117.758 6.86086 129.098C18.5509 146.718 40.0509 156.098 61.1709 157.098C82.2909 158.098 103.091 151.528 122.311 142.728C138.311 135.398 154.111 125.928 163.751 111.218C173.501 96.3283 175.751 77.8983 177.481 60.2183C178.481 49.5483 179.361 38.4883 175.771 28.3983C166.371 1.8583 132.671 -5.35171 109.441 3.85829Z" fill="#F5F8FF"/>
</g>
</svg>
