<svg width="13" height="13" viewBox="0 0 13 13" fill="none" xmlns="http://www.w3.org/2000/svg">
<path d="M5.18286 9.42322V11.7993C5.18286 11.9653 5.28942 12.1123 5.44721 12.1646C5.48666 12.1774 5.52713 12.1835 5.56709 12.1835C5.68697 12.1835 5.80275 12.1272 5.87652 12.0268L7.26641 10.1353L5.18286 9.42322Z" fill="white"/>
<path d="M12.834 0.47128C12.7161 0.387774 12.5614 0.376504 12.4333 0.443616L0.906433 6.46322C0.77016 6.53443 0.689728 6.67992 0.700999 6.8331C0.712782 6.98679 0.814731 7.11794 0.959713 7.16764L4.16419 8.26295L10.9886 2.42778L5.70777 8.79011L11.0783 10.6257C11.1182 10.639 11.1602 10.6462 11.2023 10.6462C11.2719 10.6462 11.3411 10.6272 11.4021 10.5904C11.4994 10.5309 11.5655 10.431 11.5824 10.3188L12.9912 0.841166C13.0122 0.69772 12.9518 0.555299 12.834 0.47128Z" fill="white"/>
</svg>
