<svg width="25" height="25" viewBox="0 0 25 25" fill="none" xmlns="http://www.w3.org/2000/svg">
<path d="M2.39008 14.4066L9.40806 7.3886C9.96257 6.83409 10.8109 6.83969 11.3232 7.35202L16.8715 12.9003C17.3719 13.4007 17.3848 14.2656 16.8349 14.8155L9.81694 21.8334C9.2671 22.3833 8.40222 22.3704 7.9018 21.87L2.35349 16.3217C1.85307 15.8213 1.84024 14.9564 2.39008 14.4066Z" fill="white" stroke="white" stroke-width="2"/>
<path d="M15.0425 2.15087C14.958 2.26831 14.9064 2.41868 14.8717 2.55222L13.728 6.6594L17.5476 10.479L21.6716 9.31849C22.4396 9.11031 22.8808 8.3398 22.6894 7.57625C22.6254 7.34392 22.5113 7.1288 22.3302 6.94769L17.2428 1.86037C16.6337 1.25121 15.5507 1.34634 15.0425 2.15087Z" fill="white"/>
</svg>
