<svg width="157" height="141" viewBox="0 0 157 141" fill="none" xmlns="http://www.w3.org/2000/svg">
<path d="M117.688 34.5994C116.43 34.5994 115.411 35.6185 115.411 36.8763V134.138C115.411 134.964 114.739 135.636 113.913 135.636H42.7351C41.9091 135.636 41.2372 134.964 41.2372 134.138V92.0686C41.2372 90.8108 40.2181 89.7917 38.9603 89.7917C37.7025 89.7917 36.6833 90.8108 36.6833 92.0686V134.138C36.6833 137.475 39.3981 140.19 42.7351 140.19H113.913C117.25 140.19 119.965 137.475 119.965 134.138V36.8763C119.965 35.6185 118.945 34.5994 117.688 34.5994V34.5994Z" fill="#FFC973"/>
<path d="M38.9603 84.6422C40.2181 84.6422 41.2372 83.6231 41.2372 82.3653V23.9573C41.2372 23.1312 41.9091 22.4594 42.7351 22.4594H92.189C93.4468 22.4594 94.4659 21.4402 94.4659 20.1825C94.4659 18.9247 93.4468 17.9055 92.189 17.9055H42.7351C39.3984 17.9055 36.6833 20.6202 36.6833 23.9573V82.3653C36.6833 83.6228 37.7028 84.6422 38.9603 84.6422V84.6422Z" fill="#FFC973"/>
<path d="M108.191 70.5745V39.9822C108.191 36.4797 105.341 33.6299 101.838 33.6299H54.8077C51.3051 33.6299 48.4553 36.4797 48.4553 39.9822V70.5745C48.4553 74.0774 51.3051 76.9272 54.8077 76.9272H65.5921C66.8499 76.9272 67.8691 75.908 67.8691 74.6503C67.8691 73.3925 66.8499 72.3733 65.5921 72.3733H54.8077C53.8158 72.3733 53.0092 71.5664 53.0092 70.5745V39.9822C53.0092 38.9904 53.8158 38.1838 54.8077 38.1838H101.838C102.83 38.1838 103.637 38.9904 103.637 39.9822V70.5745C103.637 71.5664 102.83 72.3733 101.838 72.3733H75.2958C74.0381 72.3733 73.0189 73.3925 73.0189 74.6503C73.0189 75.908 74.0381 76.9272 75.2958 76.9272H101.838C105.341 76.9269 108.191 74.0774 108.191 70.5745Z" fill="#FFC973"/>
<path d="M98.0819 122.242H89.9351C88.6773 122.242 87.6581 123.261 87.6581 124.519C87.6581 125.777 88.6773 126.796 89.9351 126.796H98.0819C101.105 126.796 103.565 124.337 103.565 121.314V113.33C103.565 110.307 101.105 107.847 98.0819 107.847H58.5659C55.5427 107.847 53.083 110.307 53.083 113.33V121.314C53.083 124.337 55.5427 126.796 58.5659 126.796H80.2317C81.4895 126.796 82.5086 125.777 82.5086 124.519C82.5086 123.261 81.4895 122.242 80.2317 122.242H58.5659C58.0534 122.242 57.6369 121.826 57.6369 121.314V113.33C57.6369 112.817 58.0534 112.401 58.5659 112.401H98.0819C98.5944 112.401 99.0109 112.817 99.0109 113.33V121.314C99.0109 121.826 98.5944 122.242 98.0819 122.242Z" fill="#FFC973"/>
<path d="M56.3199 89.4938H100.984C102.242 89.4938 103.261 88.4747 103.261 87.2169C103.261 85.9591 102.242 84.9399 100.984 84.9399H56.3199C55.0621 84.9399 54.043 85.9591 54.043 87.2169C54.043 88.4747 55.0621 89.4938 56.3199 89.4938V89.4938Z" fill="#FFC973"/>
<path d="M56.3199 100.947H100.984C102.242 100.947 103.261 99.9283 103.261 98.6705C103.261 97.4127 102.242 96.3936 100.984 96.3936H56.3199C55.0621 96.3936 54.043 97.4127 54.043 98.6705C54.043 99.9283 55.0621 100.947 56.3199 100.947V100.947Z" fill="#FFC973"/>
<path d="M29.8521 30.2808H6.91272C3.61147 30.2808 0.925293 32.9669 0.925293 36.2688V121.954C0.925293 125.256 3.61147 127.942 6.91303 127.942H29.8524C31.1102 127.942 32.1293 126.923 32.1293 125.666C32.1293 124.408 31.1102 123.389 29.8524 123.389H6.91303C6.12248 123.389 5.47916 122.745 5.47916 121.954V36.2688C5.47916 35.4782 6.12217 34.8346 6.91303 34.8346H29.8524C31.1102 34.8346 32.1293 33.8155 32.1293 32.5577C32.1293 31.2999 31.1099 30.2808 29.8521 30.2808V30.2808Z" fill="#FFC973"/>
<path d="M150.086 30.2808H126.795C125.537 30.2808 124.518 31.2999 124.518 32.5577C124.518 33.8155 125.537 34.8346 126.795 34.8346H150.086C150.877 34.8346 151.521 35.4779 151.521 36.2688V121.954C151.521 122.745 150.877 123.389 150.086 123.389H126.795C125.537 123.389 124.518 124.408 124.518 125.666C124.518 126.923 125.537 127.942 126.795 127.942H150.086C153.388 127.942 156.074 125.256 156.074 121.954V36.2688C156.074 32.9669 153.388 30.2808 150.086 30.2808Z" fill="#FFC973"/>
<path d="M29.8524 47.268C31.1101 47.268 32.1293 46.2488 32.1293 44.991C32.1293 43.7333 31.1101 42.7141 29.8524 42.7141H14.8993C12.5932 42.7141 10.7173 44.5903 10.7173 46.8964V68.1499C10.7173 70.4563 12.5935 72.3322 14.8993 72.3322H29.8524C31.1101 72.3322 32.1293 71.313 32.1293 70.0553C32.1293 68.7975 31.1101 67.7783 29.8524 67.7783H15.2712V47.2677H29.8524V47.268Z" fill="#FFC973"/>
<path d="M145.931 46.8964C145.931 44.59 144.054 42.7141 141.749 42.7141H126.795C125.538 42.7141 124.519 43.7333 124.519 44.991C124.519 46.2488 125.538 47.268 126.795 47.268H141.377V67.7786H126.795C125.538 67.7786 124.519 68.7978 124.519 70.0556C124.519 71.3133 125.538 72.3325 126.795 72.3325H141.749C144.055 72.3325 145.931 70.4563 145.931 68.1502V46.8964Z" fill="#FFC973"/>
<path d="M126.795 106.897C125.538 106.897 124.519 107.916 124.519 109.173C124.519 110.431 125.538 111.45 126.795 111.45H141.492C143.939 111.45 145.931 109.459 145.931 107.012V97.1349C145.931 94.6873 143.939 92.696 141.492 92.696H126.795C125.538 92.696 124.519 93.7152 124.519 94.973C124.519 96.2308 125.538 97.2499 126.795 97.2499H141.377V106.897H126.795Z" fill="#FFC973"/>
<path d="M29.8524 97.2499C31.1101 97.2499 32.1293 96.2308 32.1293 94.973C32.1293 93.7152 31.1101 92.696 29.8524 92.696H15.1561C12.7085 92.696 10.7173 94.6873 10.7173 97.1349V107.012C10.7173 109.459 12.7085 111.45 15.1561 111.45H29.8524C31.1101 111.45 32.1293 110.431 32.1293 109.173C32.1293 107.916 31.1101 106.897 29.8524 106.897H15.2712V97.2499H29.8524Z" fill="#FFC973"/>
<path d="M29.8517 79.3899H19.2369C17.9791 79.3899 16.96 80.409 16.96 81.6668C16.96 82.9246 17.9791 83.9438 19.2369 83.9438H29.8517C31.1094 83.9438 32.1286 82.9246 32.1286 81.6668C32.1286 80.409 31.1094 79.3899 29.8517 79.3899Z" fill="#FFC973"/>
<path d="M126.795 83.9438H138.266C139.524 83.9438 140.543 82.9246 140.543 81.6668C140.543 80.409 139.524 79.3899 138.266 79.3899H126.795C125.538 79.3899 124.519 80.409 124.519 81.6668C124.519 82.9246 125.538 83.9438 126.795 83.9438Z" fill="#FFC973"/>
<path d="M113.487 0.482544C105.223 0.482544 98.5005 7.20558 98.5005 15.4687C98.5005 23.7319 105.224 30.4549 113.487 30.4549C121.75 30.4549 128.473 23.7319 128.473 15.4687C128.473 7.20558 121.75 0.482544 113.487 0.482544V0.482544ZM113.487 25.901C107.735 25.901 103.054 21.2212 103.054 15.4687C103.054 9.71628 107.735 5.03642 113.487 5.03642C119.239 5.03642 123.919 9.71628 123.919 15.4687C123.919 21.2212 119.239 25.901 113.487 25.901Z" fill="#FFC973"/>
</svg>
