<svg width="112" height="113" viewBox="0 0 112 113" fill="none" xmlns="http://www.w3.org/2000/svg">
<path d="M56 0.28064C25.108 0.28064 0.0650024 25.3236 0.0650024 56.2156C0.0650024 87.1076 25.108 112.151 56 112.151C86.892 112.151 111.935 87.1076 111.935 56.2156C111.902 25.3374 86.8784 0.313648 56 0.28064ZM56 104.16C29.521 104.16 8.05565 82.6946 8.05565 56.2156C8.05565 29.7367 29.521 8.27128 56 8.27128C82.4789 8.27128 103.944 29.7367 103.944 56.2156C103.916 82.6828 82.4672 104.131 56 104.16Z" fill="#09BC8A"/>
<path d="M86.6935 33.4143C85.1451 31.9189 82.6905 31.9189 81.1424 33.4143L44.0134 70.5431L30.8566 57.3862C29.3237 55.799 26.7942 55.7553 25.2072 57.2882C23.62 58.8211 23.5762 61.3505 25.1091 62.9375C25.1412 62.9708 25.1739 63.0036 25.2072 63.0356L41.1887 79.0171C42.7488 80.577 45.278 80.577 46.8381 79.0171L86.7918 39.0635C88.3247 37.4765 88.2807 34.9472 86.6935 33.4143Z" fill="#09BC8A"/>
</svg>
