<svg width="287" height="154" viewBox="0 0 287 154" fill="none" xmlns="http://www.w3.org/2000/svg">
<path d="M109.221 40.0702L250.071 2.32952C254.498 1.1433 259.091 3.79461 260.277 8.22133L284 96.7562C285.186 101.183 282.534 105.775 278.107 106.962L137.257 144.702C132.83 145.888 128.238 143.237 127.051 138.81L103.329 50.2755C102.143 45.8487 104.794 41.2565 109.221 40.0702ZM113.859 45.297L189.25 75.5615C190.609 76.118 192.485 76.1911 194.252 75.7091C196.023 75.2432 197.611 74.2417 198.51 73.0802L248.669 9.17479L113.859 45.297ZM160.84 86.5038L137.956 137.925C137.933 137.976 137.899 138.02 137.873 138.068L274.257 101.524C274.21 101.493 274.16 101.474 274.114 101.441L228.585 68.3515C227.19 67.3366 226.879 65.3838 227.896 63.9854C228.911 62.5902 230.864 62.2798 232.259 63.295L277.344 96.0617L254.712 11.5992L203.424 76.9389C201.493 79.3823 198.769 80.9597 195.87 81.7451C192.971 82.5153 189.821 82.5117 186.925 81.3598L109.838 50.4181L132.47 134.88L155.13 83.9618C155.831 82.3852 157.679 81.6764 159.254 82.3781C160.832 83.0784 161.541 84.9271 160.84 86.5038Z" fill="#1C4A36"/>
<line x1="70.2028" y1="70.1834" x2="38.519" y2="80.3661" stroke="#1C4A36" stroke-width="8" stroke-linecap="round"/>
<line x1="90.3803" y1="135.389" x2="48.9912" y2="149.496" stroke="#1C4A36" stroke-width="8" stroke-linecap="round"/>
<line x1="27.2101" y1="118.734" x2="5.10884" y2="126.593" stroke="#1C4A36" stroke-width="8" stroke-linecap="round"/>
</svg>
